<svg xmlns="http://www.w3.org/2000/svg" width="36.502" height="36.343" viewBox="0 0 36.502 36.343">
    <path fill="#264a9f" fill-rule="evenodd" d="M22.826 34.772c-2.156 1.78-5.239 2-8.489.906a21.448 21.448 0 0 1-9.211-6.612.736.736 0 0 1-.058-.066A21.445 21.445 0 0 1 .155 18.777c-.512-3.409.25-6.424 2.409-8.235l.014-.012c.535-.435 1.343-.329 2.22.2a9.084 9.084 0 0 1 2.137 1.9.761.761 0 0 1 .055.066 17.169 17.169 0 0 1 1.92 2.9c.635 1.232.868 2.36.282 2.852a3.188 3.188 0 0 0-.39 4.471l2.962 3.53a3.188 3.188 0 0 0 4.471.39c.584-.49 1.653-.064 2.756.774a12.826 12.826 0 0 1 4.083 4.887 1.963 1.963 0 0 1-.16 2.192.719.719 0 0 1-.088.075zm3.91-4.625a.726.726 0 0 0 .657 1.295A16.616 16.616 0 1 0 6.567 6.689c-.533.713.618 1.593 1.161.866a15.264 15.264 0 0 1 4.21-3.855 15.165 15.165 0 1 1 14.8 26.445zm-2.3.981a.713.713 0 1 1-.713.713.713.713 0 0 1 .715-.714zM5.663 8.8a.713.713 0 1 0 .713.713.713.713 0 0 0-.713-.713zm21.213 11.75a.727.727 0 0 1-1.455 0v-3.207h-3.743a.724.724 0 0 1-.557-1.187l4.428-5.314a.727.727 0 0 1 1.327.412v4.638h.882a.727.727 0 0 1 0 1.455h-.882zm-1.455-4.662h-2.194l2.194-2.633zm-10.527-1.776a2.134 2.134 0 1 1 4.268 0 1.717 1.717 0 0 1-.575 1.314 7.845 7.845 0 0 1-1.837 1.134c-1.828.912-3.224 3.65-3.228 3.657a.726.726 0 0 0 .645 1.058h5.723a.727.727 0 0 0 0-1.455h-4.441a5.941 5.941 0 0 1 1.951-1.959 8.927 8.927 0 0 0 2.189-1.384 3.087 3.087 0 0 0 1.03-2.366 6.3 6.3 0 0 0-1.051-2.538 6.3 6.3 0 0 0-2.538-1.051 3.589 3.589 0 0 0-3.589 3.589.727.727 0 0 0 1.455 0zM14.8 34.3c2.791.937 5.39.786 7.133-.675.007-.006-.077-.236-.218-.6a11.591 11.591 0 0 0-3.6-4.258 3.678 3.678 0 0 0-1.124-.671 4.1 4.1 0 0 1-3.2.917 4.615 4.615 0 0 1-3.142-1.632l-2.962-3.53a4.61 4.61 0 0 1-1.06-3.375A4.344 4.344 0 0 1 8.17 17.41a17.862 17.862 0 0 0-2.32-3.819 7.659 7.659 0 0 0-1.8-1.618c-.323-.194-.532-.314-.556-.317l-.029.023c-1.72 1.464-2.312 3.985-1.877 6.883A19.994 19.994 0 0 0 6.21 28.1a20 20 0 0 0 8.59 6.2zm0 0" transform="translate(-.001)"/>
</svg>
