<svg xmlns="http://www.w3.org/2000/svg" id="Group_2818" width="26.921" height="35.895" viewBox="0 0 26.921 35.895">
    <defs>
        <style>
            .cls-1{fill:#264a9f}
        </style>
    </defs>
    <g id="Group_2817">
        <path id="Path_1670" d="M75.217 22.434A11.217 11.217 0 1 0 64 11.217a11.229 11.229 0 0 0 11.217 11.217zm0-20.939a9.721 9.721 0 1 1-9.717 9.722A9.733 9.733 0 0 1 75.217 1.5z" class="cls-1" transform="translate(-64)"/>
        <path id="Path_1671" d="M90.173 306.145a.747.747 0 0 0-.748.748v4.18l-9.94-9.943a.748.748 0 0 0-1.057 0l-5.454 5.454-7.7-7.7a.748.748 0 0 0-1.057 1.057l8.226 8.226a.747.747 0 0 0 1.057 0l5.454-5.454 9.409 9.412H84.19a.748.748 0 1 0 0 1.5h5.982a.747.747 0 0 0 .748-.748v-5.982a.747.747 0 0 0-.747-.75z" class="cls-1" transform="translate(-64 -277.728)"/>
        <g id="india" transform="translate(-65.064 10.333)">
            <g id="Group_2741" transform="translate(73.365 -3.06)">
                <path id="Path_1643" fill="#264a9f" stroke="#264a9f" stroke-width="0.75px" d="M62.177 2.361h-1.332A2.626 2.626 0 0 0 59.793.525h2.384a.262.262 0 0 0 0-.525h-5.55a.262.262 0 0 0 0 .525h1.589a2.119 2.119 0 0 1 2.1 1.836h-3.69a.262.262 0 0 0 0 .525h3.69a2.123 2.123 0 0 1-2.1 1.862H56.63a.266.266 0 0 0-.262.27.271.271 0 0 0 .081.189l3.968 3.753a.261.261 0 0 0 .37-.01.268.268 0 0 0-.01-.375l-3.491-3.3h.928a2.649 2.649 0 0 0 2.631-2.387h1.332a.262.262 0 0 0 0-.525z" transform="translate(-56.365)"/>
            </g>
        </g>
    </g>
</svg>
