<svg xmlns="http://www.w3.org/2000/svg" width="37.904" height="38.467" viewBox="0 0 37.904 38.467">
    <defs>
        <style>
            .cls-1{fill:none;stroke-width:1.5px;stroke:#264a9f}
        </style>
    </defs>
    <g id="Group_2866" transform="translate(95.92 -244.108)">
        <path id="Path_1672" d="M-77.156 270.717a6.833 6.833 0 0 0 6.835-6.833 6.833 6.833 0 0 0-6.834-6.835 6.835 6.835 0 0 0-6.835 6.835 6.841 6.841 0 0 0 6.834 6.833z" class="cls-1"/>
        <g id="india">
            <g id="Group_2741">
                <path id="Path_1643" fill="#264a9f" stroke="#264a9f" stroke-width="0.8px" d="M-75.392 262.918h-.808a1.6 1.6 0 0 0-.641-1.118h1.453a.16.16 0 0 0 .16-.16.161.161 0 0 0-.16-.161h-3.379a.16.16 0 0 0-.16.16.161.161 0 0 0 .16.16h.968a1.29 1.29 0 0 1 1.281 1.118h-2.249a.16.16 0 0 0-.16.16.16.16 0 0 0 .16.16h2.249a1.294 1.294 0 0 1-1.282 1.135h-.967a.161.161 0 0 0-.16.164.167.167 0 0 0 .049.115l2.418 2.287a.16.16 0 0 0 .225-.006.163.163 0 0 0-.005-.23l-2.127-2.013h.566a1.614 1.614 0 0 0 1.6-1.455h.812a.16.16 0 0 0 .16-.16.16.16 0 0 0-.16-.16z"/>
            </g>
        </g>
        <path id="Line_236" d="M0 0L12.958 4.617" class="cls-1" transform="translate(-83.621 261.658)"/>
        <path id="Line_227" d="M0 0L0 4.887" class="cls-1" transform="translate(-76.967 252.017)"/>
        <path id="Line_228" d="M0 0L0 4.275" class="cls-1" transform="translate(-76.967 270.86)"/>
        <path id="Path_1672-2" d="M-73.73 248.407l-3.238-3.238-3.238 3.238v3.581h6.476z" class="cls-1"/>
        <path id="Path_1673" d="M-73.73 278.244l-3.238-3.238-3.238 3.238v3.581h6.476z" class="cls-1"/>
        <path id="Line_229" d="M4.887 0L0 0" class="cls-1" transform="translate(-70.323 264.059)"/>
        <path id="Line_230" d="M4.887 0L0 0" class="cls-1" transform="translate(-88.647 264.059)"/>
        <path id="Path_1674" d="M-58.766 263.669L-62 260.431l-3.238 3.238v3.581h6.475z" class="cls-1"/>
        <path id="Path_1675" d="M-88.694 263.669l-3.238-3.238-3.238 3.238v3.581h6.475z" class="cls-1"/>
    </g>
</svg>
