<svg xmlns="http://www.w3.org/2000/svg" width="230.133" height="108.81" viewBox="0 0 230.133 108.81">
    <defs>
        <linearGradient id="linear-gradient" x1=".518" x2=".515" y1=".031" y2=".774" gradientUnits="objectBoundingBox">
            <stop offset="0" stop-color="#00bede" stop-opacity=".988"/>
            <stop offset="1" stop-color="#35e1ca" stop-opacity=".11"/>
        </linearGradient>
        <linearGradient id="linear-gradient-2" x1=".516" x2=".514" y1=".294" y2=".815" gradientUnits="objectBoundingBox">
            <stop offset="0" stop-color="#238bea"/>
            <stop offset=".732" stop-color="#1fd3d2" stop-opacity=".4"/>
            <stop offset="1" stop-color="#35d3e1" stop-opacity=".141"/>
        </linearGradient>
        <style>
            .cls-1,.cls-24,.cls-3{fill:none}.cls-1,.cls-3{stroke:#195dff;stroke-linecap:round}.cls-3{stroke-miterlimit:10}.cls-10{fill:#e2edff}.cls-10,.cls-11,.cls-23,.cls-24{stroke:#002226}.cls-11,.cls-23{fill:#f8feff}.cls-12{fill:#dcf5f8;stroke:#000}.cls-14{fill:#002226}.cls-23,.cls-24{stroke-width:.5px}
        </style>
    </defs>
    <g id="Group_12545" transform="translate(-3251.5 7287)">
        <g id="Group_12480" transform="translate(3252 -7287)">
            <g id="Group_4145">
                <path id="Line_61-2" d="M36.54 0H-.569" class="cls-1" transform="translate(192.593 90.545)"/>
                <g id="Group_4143">
                    <path id="Path_552" fill="url(#linear-gradient)" d="M1246.189 168.846V149.49c0-38.93-33.358-70.49-74.508-70.49s-74.508 31.559-74.508 70.49v19.356" opacity="0.2" transform="translate(-1045.266 -79)"/>
                    <path id="Path_553" d="M1246.189 168.21v-19.219c0-38.655-33.358-69.991-74.508-69.991s-74.508 31.336-74.508 69.991v19.219" class="cls-3" transform="translate(-1046.047 -78.467)"/>
                    <path id="Line_61" d="M82.018 0L0 0" class="cls-3" transform="translate(0 90.409)"/>
                    <path id="Path_990" fill="url(#linear-gradient-2)" d="M1246.189 168.846V149.49c0-38.93-33.358-70.49-74.508-70.49s-74.508 31.559-74.508 70.49v19.356" opacity="0.2" transform="translate(-1045.882 -78.219)"/>
                    <ellipse id="Ellipse_13" cx="3.963" cy="4.217" fill="#fff" opacity="0.5" rx="3.963" ry="4.217" transform="rotate(-176.053 45.923 12.486)"/>
                    <path id="Union_5" fill="#fff" stroke="rgba(0,0,0,0)" stroke-miterlimit="10" d="M.037 42.132a4.612 4.612 0 0 1 .63-2.98l-.02-.022.083-.079a4.218 4.218 0 0 1 1.348-1.315C21.861 18.1 24.682 0 24.682 0c-.575 22.691-12.531 38.781-16.818 43.84a4.28 4.28 0 0 1-1.375 1.546c-.091.1-.139.144-.139.144l-.031-.035a3.978 3.978 0 0 1-2.065.578 4.371 4.371 0 0 1-4.217-3.941z" opacity="0.5" transform="rotate(180 41.499 36.842)"/>
                </g>
                <path id="Line_61-2-2" d="M-1.583 0H-23.5" class="cls-1" transform="translate(51.974 102.364)"/>
            </g>
            <g id="Group_4180" transform="translate(6.325 29.9)">
                <g id="Group_4179">
                    <path id="Path_10452" fill="#fff" stroke="#195dff" stroke-linecap="round" stroke-miterlimit="10" d="M1427.889 548.966c-1.383-.554-2.771-1.1-4.153-1.657q-3.063-1.23-6.121-2.467-5.882-2.372-11.767-4.738c-.355-.142-.731-.23-1.1-.344a1.108 1.108 0 0 0-.24-.181c-1.972-.795-3.939-1.6-5.923-2.359a1.521 1.521 0 0 0-.991.024c-1.768.673-3.522 1.388-5.277 2.1a1.058 1.058 0 0 0-.25.205 1 1 0 0 0-.3.02q-1.636.645-3.269 1.3l-9.362 3.762q-5.411 2.175-10.824 4.344a1.187 1.187 0 0 0-.764.74 2.454 2.454 0 0 0-.09.864c.179 2.455.353 4.911.575 7.363.191 2.121.421 4.239.674 6.354.224 1.871.494 3.738.757 5.6.051.357.167.7.254 1.056a1.09 1.09 0 0 0-.036.305c.261 1.48.508 2.964.8 4.437a65.447 65.447 0 0 0 2.43 9.25 19.118 19.118 0 0 0 2.749 5.452 26.236 26.236 0 0 0 4.284 4.164c1.958 1.588 3.938 3.15 5.958 4.66 2.156 1.611 4.359 3.16 6.557 4.714 1.5 1.059 3.027 2.078 4.536 3.119a1.624 1.624 0 0 0 2.272-.026c.71-.5 1.443-.968 2.158-1.464.6-.417 1.181-.855 1.773-1.284.278-.17.569-.323.834-.512 2.383-1.714 4.78-3.409 7.134-5.16a83.371 83.371 0 0 0 7.482-6.145 15.688 15.688 0 0 0 3.528-4.732 40.892 40.892 0 0 0 2.7-8.123c.5-2.129.9-4.282 1.332-6.426.084-.42.11-.853.163-1.281a2.5 2.5 0 0 0 .128-.376c.095-.554.186-1.11.261-1.668.309-2.279.639-4.556.906-6.84.273-2.335.5-4.675.708-7.016.168-1.878.287-3.76.409-5.643a1.266 1.266 0 0 0-.895-1.391z" transform="translate(-1367.454 -537.147)"/>
                </g>
                <text id="COVID-19_Covered_" fill="#264a9f" stroke="rgba(0,0,0,0)" font-family="Poppins-SemiBold, Poppins" font-size="8px" font-weight="600" transform="translate(4.685 21.634)">
                    <tspan x="5.862" y="8">COVID-19</tspan><tspan x="3.414" y="18"> COVERED*</tspan>
                </text>
            </g>
        </g>
        <g id="Group_12544" opacity="0.5" transform="translate(3427.206 -7230.371)">
            <g id="Group_2225" transform="translate(17.126 2.887)">
                <g id="Group_2224">
                    <path id="Path_1374" d="M4266 45.174l.438-.132a.706.706 0 0 1 .322-.02l3.731.63a.311.311 0 0 1 .038.6l-1.21.365a.31.31 0 0 1-.22-.015z" class="cls-10" transform="translate(-4266.003 -45.011)"/>
                </g>
            </g>
            <g id="Group_2227">
                <g id="Group_2226">
                    <path id="Path_1375" d="M4174.2 32.116l4.57 3.785c2.156.855 7.076-.629 7.754-.834l18.9-5.7c.743-.224 3.74.395 4.991.645a.476.476 0 0 1 .215.8c-3.128 3.338-25.34 8.926-25.34 8.926-5.78 1.538-8.885-1.058-9.251-1.834l-3.117-5.4z" class="cls-10" transform="translate(-4172.918 -29.321)"/>
                </g>
            </g>
            <g id="Group_2229" transform="translate(32.878 .149)">
                <g id="Group_2228">
                    <path id="Path_1376" d="M4352 31.172a.3.3 0 0 1-.369-.217.322.322 0 0 1 .208-.391l1.428-.431c.459.068.941.152 1.4.236z" transform="translate(-4351.619 -30.133)"/>
                </g>
            </g>
            <g id="Group_2245" transform="translate(14.354 1.738)">
                <g id="Group_2232" transform="translate(3.861 3.492)">
                    <g id="Group_2231">
                        <g id="Group_2230">
                            <path id="Path_1377" d="M4272.506 57.985a.3.3 0 0 0-.369-.224.323.323 0 0 0-.206.4.3.3 0 0 0 .37.224.324.324 0 0 0 .205-.4z" transform="translate(-4271.919 -57.749)"/>
                        </g>
                    </g>
                </g>
                <g id="Group_2235" transform="translate(0 4.657)">
                    <g id="Group_2234">
                        <g id="Group_2233">
                            <path id="Path_1378" d="M4251.522 64.313a.3.3 0 0 0-.369-.224.323.323 0 0 0-.206.4.3.3 0 0 0 .37.224.324.324 0 0 0 .205-.4z" transform="translate(-4250.935 -64.077)"/>
                        </g>
                    </g>
                </g>
                <g id="Group_2238" transform="translate(7.721 2.328)">
                    <g id="Group_2237">
                        <g id="Group_2236">
                            <path id="Path_1379" d="M4293.49 51.657a.3.3 0 0 0-.37-.224.322.322 0 0 0-.205.4.3.3 0 0 0 .37.224.324.324 0 0 0 .205-.4z" transform="translate(-4292.903 -51.422)"/>
                        </g>
                    </g>
                </g>
                <g id="Group_2241" transform="translate(11.582 1.164)">
                    <g id="Group_2240">
                        <g id="Group_2239">
                            <path id="Path_1380" d="M4314.474 45.33a.3.3 0 0 0-.369-.224.323.323 0 0 0-.206.4.3.3 0 0 0 .37.224.323.323 0 0 0 .205-.4z" transform="translate(-4313.887 -45.094)"/>
                        </g>
                    </g>
                </g>
                <g id="Group_2244" transform="translate(15.443)">
                    <g id="Group_2243">
                        <g id="Group_2242">
                            <path id="Path_1381" d="M4335.458 39a.3.3 0 0 0-.369-.224.323.323 0 0 0-.206.4.3.3 0 0 0 .37.224.324.324 0 0 0 .205-.4z" transform="translate(-4334.871 -38.767)"/>
                        </g>
                    </g>
                </g>
            </g>
            <g id="Group_2247" transform="translate(2.244 8.36)">
                <g id="Group_2246">
                    <path id="Path_1382" d="M4185.638 77.192a.4.4 0 0 0 .156-.089l1.8-1.64a.4.4 0 0 0-.39-.686l-.9.27a.4.4 0 0 0-.222.166l-.9 1.37a.4.4 0 0 0 .456.609z" class="cls-10" transform="translate(-4185.115 -74.757)"/>
                </g>
            </g>
            <g id="Group_2252" transform="translate(19.76 7.309)">
                <g id="Group_2249" transform="translate(0 .125)">
                    <g id="Group_2248">
                        <path id="Path_1383" d="M4281.837 72.921l2.46-.742a.762.762 0 0 0 .517-.925l-.254-.96a.763.763 0 0 0-.957-.534l-2.412.727a1.285 1.285 0 0 0-.832 1.565 1.186 1.186 0 0 0 1.478.869z" class="cls-10" transform="translate(-4280.315 -69.726)"/>
                    </g>
                </g>
                <g id="Group_2251" transform="translate(3.38)">
                    <g id="Group_2250">
                        <path id="Path_1384" d="M4299.725 71.494a.5.5 0 0 0 .341-.612l-.387-1.46a.5.5 0 0 0-.633-.353.5.5 0 0 0-.341.612l.388 1.46a.5.5 0 0 0 .632.353z" class="cls-10" transform="translate(-4298.688 -69.048)"/>
                    </g>
                </g>
            </g>
            <g id="Group_2254" transform="translate(15.536 5.35)">
                <g id="Group_2253">
                    <path id="Path_1385" d="M4257.759 66.117l.412-.124a.307.307 0 0 0 .12-.068l7.646-6.984a.311.311 0 0 0-.3-.528l-4.231 1.276a.313.313 0 0 0-.171.127l-3.827 5.832a.311.311 0 0 0 .351.469z" class="cls-10" transform="translate(-4257.357 -58.398)"/>
                </g>
            </g>
        </g>
        <g id="Group_12543" transform="translate(3323.446 -7269.432)">
            <path id="Line_61-2-3" d="M0 0L17.545 0" class="cls-3" transform="translate(88.795 90.212)"/>
            <g id="Group_12532">
                <path id="Line_61-3" d="M0 0L8.244 0" class="cls-3" transform="translate(40.627 90.028)"/>
                <g id="Group_12531">
                    <g id="Group_2258" transform="translate(33.327 3.292)">
                        <path id="Path_1391" d="M4111.286 81.514s1.888-.233 2.683.517 1.916 12.93 4.982 13.55a21.344 21.344 0 0 0 5.312-2.12c1.807-1.288 2.354-2.432 2.354-3.025a2.255 2.255 0 0 1 .985-1.578c.247 0 .22.44.22.44s2-2.2 2.327-1.888-1.123 1.731-1.123 1.731 1.561-1.731 1.889-1.731-.107.821-.574 1.263c0 0 .738-.417.958 0s-1.67 2.2-2.163 3.262-1.238.643-1.479 1.009c-3.613 5.482-10.047 7.23-11.606 5.017s-7.31-15.826-4.764-16.447z" class="cls-11" transform="translate(-4056.353 -66.566)"/>
                        <path id="Path_1392" d="M4113.968 82.031c-.794-.751-2.683-.517-2.683-.517-1.114.272-.64 3.03.376 6.232 1.122-.476 2.213-1.15 3.353-1.6a17.472 17.472 0 0 0-1.046-4.117z" class="cls-12" transform="translate(-4056.353 -66.566)"/>
                        <path id="Path_1393" fill="#189aaa" d="M4200.534 108.648l-2.618 4.549 2.024 1.017 3.47-4.6-2.875-.97z" transform="translate(-4127.568 -88.736)"/>
                        <path id="Path_1394" d="M4199.262 121.581a.721.721 0 0 1 .631.479c.136.453 0 .594-.206.594s-.357-.439-.52-.439a2.967 2.967 0 0 0-.706.3s.418-.82.8-.936z" class="cls-11" transform="translate(-4128.013 -99.289)"/>
                        <path id="Path_1395" d="M3971.751 377.832l-1.022 1.236s-.369.31.37 1.164a4.31 4.31 0 0 1 .958 2.559c0 .531 1.328.958 1.328.958s-.862-3.583-.493-4.642c.191-.549 4.279-5.789 8.371-11a28.184 28.184 0 0 0-3.407-2.228c-2.778 5.385-6.1 11.95-6.1 11.95z" class="cls-11" transform="translate(-3942.105 -298.643)"/>
                        <path id="Path_1396" d="M4029.217 231.639a24.594 24.594 0 0 1-8.095-3.722c-1.687 4.482-3.578 9.759-3.578 15.178a9 9 0 0 0-4.611 3.681c-.553.963-2 3.566-3.525 6.524a27.949 27.949 0 0 0 3.492 2.616c3.8-4.834 7.6-10.029 8.289-11.037 1-1.457 5.093-8.1 8.028-13.24z" class="cls-14" transform="translate(-3973.742 -186.061)"/>
                        <path id="Path_1397" d="M4101.278 52.073a3.464 3.464 0 0 1-.44-1.239s1.168-2.585 1.651-3.93-2.676-1.69-2.676-1.69-.638 3.793-2.442 5.514a4.788 4.788 0 0 0 3.907 1.345z" class="cls-11" transform="translate(-4045.522 -36.973)"/>
                        <path id="Path_1398" d="M4068.514 199.211a30.984 30.984 0 0 0 8.934 4.514c.375-.657.732-1.292 1.061-1.887a18.153 18.153 0 0 0 1.926-5.3c-2.907-.519-5.619-1.966-8.312-2.829-.858 1.689-2.687 3.049-3.609 5.5z" class="cls-14" transform="translate(-4021.974 -158.147)"/>
                        <path id="Path_1399" d="M4145 384.955a24.967 24.967 0 0 0-4.593 1.214c2.85 5.948 6.609 12.829 6.609 12.829s-.639 1.529-.4 1.751a14.279 14.279 0 0 0 3.114.089c.391 0 2.8.115 2.8.115l-3.6-1.641c-.3-.384-2.165-7.494-3.922-14.357z" class="cls-11" transform="translate(-4080.637 -314.207)"/>
                        <path id="Path_1400" d="M4081.391 229.379c-.411-1.59-3.848-11.613-5.543-16.528a4.451 4.451 0 0 0-4.684-2.877c-2.647.267-5.556 1.563-4.524 6.194 0 0 8.673 11.918 9.221 13.366s-.548 1.759.656 5.276a76.184 76.184 0 0 0 3.518 9.445 28.482 28.482 0 0 1 4.662-2.106c-1.534-5.985-3.051-11.783-3.306-12.77z" class="cls-14" transform="translate(-4020.271 -171.401)"/>
                        <path id="Path_1401" fill="#fff" d="M4204.516 111.01l2.06.691-2.737 3.9-1.34-.674 1.311.582 2.649-3.769-1.943-.728z" transform="translate(-4131.308 -90.663)"/>
                        <path id="Path_1402" d="M4110.125 16.451s1.848-.155 2.136 1.2-.808 2.6-.534 3.116a2.2 2.2 0 0 0 1.047.869c.165.068-.144.514-.41.611 0 0-.118.247-.041.321s.267.2.206.378-.38.263-.38.263.313.305.154.456a1.372 1.372 0 0 1-.493.232s.083.689-.267.892a3.939 3.939 0 0 1-2.306-.427c-.218-.088-.523-.206-.857-.333a4.164 4.164 0 0 1-2.763-3.888c.033-2.128.844-4.484 4.509-3.692z" class="cls-11" transform="translate(-4052.249 -13.374)"/>
                        <path id="Path_1403" d="M4083.537 81.807c-.913-.863-3.983-3.159-5.144-5.279a4.789 4.789 0 0 1-3.908-1.345 3.425 3.425 0 0 1-.639.494c-2.3 1.319 0 8.457 0 8.457s1.793 8.426 1.186 9c-.195.184-6.876 4.413-5.527 6.547 2.692 4.257 9.767 1.941 14.087 4.32.38.209-.95-16.02-.386-17.331.823-1.914 1.425-3.828.331-4.861z" class="cls-12" transform="translate(-4022.636 -61.428)"/>
                        <path id="Path_1404" d="M3878.251 433.511a2.428 2.428 0 0 1 .856 3.245 2.248 2.248 0 0 1-3.129.887 2.427 2.427 0 0 1-.856-3.245 2.251 2.251 0 0 1 3.129-.887z" transform="translate(-3863.917 -353.574)"/>
                        <path id="Path_1405" d="M3826.6 299.649l-9.583-4.584a2.441 2.441 0 0 1-1.168-3.368l10.354-19.322a9.788 9.788 0 0 1 12.789-3.96l6.2 2.967-14.462 26.986a3.165 3.165 0 0 1-4.134 1.28z" class="cls-10" transform="translate(-3815.559 -218.316)"/>
                        <path id="Path_1406" d="M3873.677 276.737l-14.373-6.874a1.856 1.856 0 0 1-.888-2.559l2.135-3.983a7.435 7.435 0 0 1 9.716-3.009l9.721 4.648-6.311 11.777z" class="cls-10" transform="translate(-3850.354 -211.894)"/>
                        <path id="Path_1407" d="M3863.485 314.179l-2.672-1.277a1.8 1.8 0 0 1-.86-2.479l11.808-22.031a7.2 7.2 0 0 1 9.409-2.914l.079.037-14.884 27.772a2.2 2.2 0 0 1-2.879.892z" class="cls-10" transform="translate(-3851.614 -232.449)"/>
                        <path id="Path_1408" d="M3952.38 224.877l-2.518-.152a1.624 1.624 0 0 0-1.522.812l-8.218 15.117h1.812l7.977-14.727a1.564 1.564 0 0 1 1.522-.8l.773.066-8.5 15.449.917.012 8.055-14.746a.765.765 0 0 0-.3-1.032z" class="cls-10" transform="translate(-3917.205 -183.454)"/>
                        <path id="Path_1409" fill="#552e5d" d="M3949.863 224.713c-1.853-.058-1.193 1.359-9.74 15.929.735-1.466 7.792-15.016 8.572-15.589a1.7 1.7 0 0 1 1.168-.341z" transform="translate(-3917.205 -183.442)"/>
                        <path id="Path_1410" d="M3884.259 311.133l6.255.034-10.27 19.164h-6.433l10.447-19.2z" class="cls-10" transform="translate(-3863.094 -253.967)"/>
                        <path id="Path_1411" d="M3842.648 425.362a3.188 3.188 0 0 1 1.124 4.263 2.956 2.956 0 0 1-4.111 1.167 3.191 3.191 0 0 1-1.125-4.264 2.955 2.955 0 0 1 4.111-1.165z" transform="translate(-3833.986 -346.843)"/>
                        <path id="Path_1412" fill="#474644" d="M3847.471 432.1a1.893 1.893 0 0 1 .668 2.531 1.756 1.756 0 0 1-2.441.692 1.892 1.892 0 0 1-.667-2.531 1.754 1.754 0 0 1 2.44-.692z" transform="translate(-3839.416 -352.475)"/>
                        <path id="Path_1413" d="M4011.394 80.692a3.139 3.139 0 0 0-1.838-.7c-1.031 0-7.847 8.53-9.613 11.4-1.69 2.748-6.8 10.92-7.889 12.632l-.823 1.767a1.588 1.588 0 0 0 .236 1.706l.134.158a3.579 3.579 0 0 0 .716.078 3.308 3.308 0 0 0 .611-.267 1.326 1.326 0 0 0 .342.011 2.536 2.536 0 0 0 .521-.387l-.335-1.973c7.021-11.86 16.1-18.72 18.7-20.086 1.551-.818-.76-4.344-.76-4.344z" class="cls-11" transform="translate(-3958.789 -65.356)"/>
                        <path id="Path_1414" fill="#18287d" d="M4061.211 77.214c-.326-.465-.972-.978-2.343-.3-.669.332-4.452 4.878-7.156 8.455a14.994 14.994 0 0 1 2.507 2.694 39.728 39.728 0 0 1 7.409-5.809c1.551-.818.32-3.985-.417-5.04z" transform="translate(-4008.263 -62.573)"/>
                        <path id="Path_1415" fill="#4f80ff" d="M4092.055 86.675a18.188 18.188 0 0 1 1.708-1.28c.282-.207.636-.367.9-.559a1.361 1.361 0 0 0 .478-.835 4.616 4.616 0 0 0-.2-2.051 8.818 8.818 0 0 0-.808-1.953 6.691 6.691 0 0 1 .972 1.9 4.544 4.544 0 0 1 .252 2.144 1.573 1.573 0 0 1-.573.955 3.714 3.714 0 0 1-.469.278l-.459.264c-.608.359-1.2.749-1.8 1.134z" transform="translate(-4041.184 -65.356)"/>
                        <path id="Path_1416" d="M3967.365 432.8l-1.736 1.038a5.079 5.079 0 0 1 1.129 1.667c.248.8.583 2.579 1.589 2.849a3.7 3.7 0 0 0 1.605.135 9.232 9.232 0 0 1-.847-1.283 1.538 1.538 0 0 1-.918-.8c-.265-.617-.374-3.606-.823-3.606z" class="cls-14" transform="translate(-3938.019 -353.253)"/>
                        <path id="Path_1417" d="M4173.048 465.027l-.426 1.266h6.564a12.072 12.072 0 0 0-2.545-.989 11.738 11.738 0 0 1-2.419.167 3.232 3.232 0 0 1-1.174-.445z" class="cls-14" transform="translate(-4106.928 -379.546)"/>
                        <path id="Path_1418" fill="#fd5e5a" d="M4115.38 31.094s-.235-.867-.611-.511-.555 1.015-.282 1.271.819.041.893-.76z" transform="translate(-4059.382 -24.964)"/>
                        <path id="Path_1419" d="M4044.167 1.272c-2.325-1.529-5.9-.761-8.221.451a14.359 14.359 0 0 0-3.8 3.181c-2.9 3.166-2.838 11.11-7.116 10.789-2.5-.188-2.248 3.554-2 5.658.112.969.848 1.714 1.016 2.664.2 1.165-.372 2.319-.284 3.488a4.858 4.858 0 0 0 2.074 3.352c2.919 2.064 6.234-1.609 8.007-3.585 3.072-3.425 5.667-7.725 6.1-12.384.192-2.1-.4-4.239-.077-6.309l.017-.1a2.3 2.3 0 0 1 2.294-1.87 1.5 1.5 0 0 0 .506-.092 6.767 6.767 0 0 1 .868-.331 2.856 2.856 0 0 1 1.162.086 10.182 10.182 0 0 0 1.086 0 1.011 1.011 0 0 0 .365-.006c.183-.055.209-.213.207-.379a5.644 5.644 0 0 0-2.204-4.613z" class="cls-14" transform="translate(-3984.734 -.421)"/>
                    </g>
                    <g id="Group_2259">
                        <path id="Path_1420" d="M3642.336 315.314c-3.568-2.128-5.121-5.953-3.46-8.7s5.938-3.434 9.693-1.615l.459-.761c-4.208-2.056-9.041-1.228-10.956 1.943s-.211 7.523 3.8 9.9l.459-.761z" transform="translate(-3636.76 -244.127)"/>
                        <path id="Path_1421" d="M3642.336 315.314c-3.568-2.128-5.121-5.953-3.46-8.7s5.938-3.434 9.693-1.615l.459-.761c-4.208-2.056-9.041-1.228-10.956 1.943s-.211 7.523 3.8 9.9l.459-.761z" class="cls-10" transform="translate(-3636.76 -244.127)"/>
                        <path id="Path_1422" d="M3634.649 310.458l2.513-.534s-.656-2.95 2.751-4.426l-1-2.358a6.941 6.941 0 0 0-3.887 3.259 5.5 5.5 0 0 0-.378 4.059z" class="cls-10" transform="translate(-3634.42 -244.153)"/>
                        <path id="Path_1423" fill="#38200a" d="M3647.331 319.419l.308-.066s-.656-2.95 2.75-4.426l-.1-.232c-3.369 1.311-3.106 3.982-2.96 4.723z" transform="translate(-3644.896 -253.583)"/>
                        <path id="Path_1424" d="M3802.752 217.6l1.035.559-11.037 18.273.739.4 11.038-18.275-1.774-.956z" class="cls-11" transform="translate(-3763.619 -174.348)"/>
                        <path id="Path_1425" d="M3685.2 291.368a1.893 1.893 0 0 0-.679-2.617q-.341-.2-.7-.4c-7.986-4.3-18.152-1.678-22.708 5.865s-1.776 17.147 6.209 21.449q.355.191.715.364a2.132 2.132 0 0 0 2.73-.78l14.428-23.885z" class="cls-10" transform="translate(-3654.416 -230.399)"/>
                        <path id="Path_1426" fill="#31511c" d="M3734.854 288.343a17.356 17.356 0 0 0-14.207-1.49 17.581 17.581 0 0 1 14.073 1.692 1.782 1.782 0 0 1 .853 2.255c-.107.29-8.726 14.37-14.437 24.2 3-4.782 14.492-23.586 14.685-24.113a2.019 2.019 0 0 0-.967-2.547z" transform="translate(-3704.783 -230.148)"/>
                        <path id="Path_1427" d="M3713.76 318.228c-.073-.04-.145-.081-.219-.12-6.015-3.242-13.424-1.678-16.549 3.5s-.78 11.995 5.234 15.237c.074.04.149.075.223.114l11.311-18.726z" class="cls-10" transform="translate(-3684.351 -254.989)"/>
                        <path id="Path_1428" d="M3825.734 222.53l1.773.956 3.934-6.513-2.436-1.312-3.272 6.869z" class="cls-14" transform="translate(-3790.535 -172.768)"/>
                        <path id="Path_1429" d="M3703.9 431.36a3.131 3.131 0 0 1 1.274 4.4 3.526 3.526 0 0 1-4.659 1.2 3.132 3.132 0 0 1-1.274-4.4 3.523 3.523 0 0 1 4.659-1.2z" class="cls-14" transform="translate(-3686.948 -348.435)"/>
                        <path id="Path_1430" d="M3709.367 438.31a1.861 1.861 0 0 1 .757 2.614 2.094 2.094 0 0 1-2.767.714 1.859 1.859 0 0 1-.756-2.613 2.092 2.092 0 0 1 2.766-.715z" class="cls-10" transform="translate(-3693.102 -354.248)"/>
                        <path id="Path_1431" d="M3857.245 54.718s-1.042-.563-3.819 1.713a45.649 45.649 0 0 0-15.575 26.016l-2.661 2.781s-.714.249.583.656c0 0 .318.635.736.559a.687.687 0 0 0 .662.207c.346-.13.227-.527.227-.527l1.6-3.687s5.882-10.359 8.855-13.981 11.77-11.769 9.392-13.737z" class="cls-11" transform="translate(-3798.092 -41.387)"/>
                        <path id="Path_1432" d="M3890 63.667l4.047 4s8.046-9.594 8.486-11.468.083-2.519-.816-2.479c-3.776.171-11.717 9.943-11.717 9.943z" class="cls-14" transform="translate(-3842.976 -40.625)"/>
                        <path id="Path_1433" d="M3914.617 55.818a4.863 4.863 0 0 0-4.294-.772c-2.408.771-6.669 12.95-7.8 18.746-.173.892-1.863 7.979-1.335 9.809 2.9 10.062 14.149 25.387 14.149 25.387l7.65 20.165s-.647 2.128-.414 2.677 1.437 0 2.447 0 3.612.44 3.806.44 2.1-.477 2.1-.477-4.116-.586-5.514-3.007-4.389-22.452-4.389-22.452-5.5-27.587-5.683-30.339 2.148-17.535 1.178-18.855-1.9-1.322-1.9-1.322z" class="cls-12" transform="translate(-3852.027 -41.528)"/>
                        <path id="Path_1434" d="M3847.256 201.878l.181 20.421s-7.534 20.1-8.622 21.131-3.822 3.257-3.822 3.257 1.809 1.214 2.872 2.071c1.348 1.085 2.5 1.039 5.766 1.039s-.943-.8-1.708-1.526c-1.408-1.329-.621-4.255-.621-4.255l12.039-18.864s5.722-16.4 8.065-17.013l.584-8.365-14.733 2.1z" class="cls-12" transform="translate(-3798.091 -159.805)"/>
                        <path id="Path_1435" d="M3911.29 73.585c-.182-2.751.773-17.512-.2-18.832s-1.9-1.322-1.9-1.322a4.068 4.068 0 0 0-4.544-1.283c-2.4.8-7.729 13.132-8.855 18.929-.173.893-1.773 10.24-1.245 12.072 0 .012 18.832 1.141 18.832 1.141-.551-3.023-2.043-10.009-2.088-10.7z" class="cls-14" transform="translate(-3846.6 -39.142)"/>
                        <path id="Path_1436" d="M3963.944 33.066a30.4 30.4 0 0 0-3.951 3.891c-.4.629 1.356 1.7 2.851 2.412a1.159 1.159 0 0 0 1.476-.421l2.5-4.082-2.879-1.8z" class="cls-11" transform="translate(-3900.044 -23.768)"/>
                        <path id="Path_1437" d="M3980.254-4.079a3.78 3.78 0 0 0-1.916-3.082 4.426 4.426 0 0 0-5.833 2.794 1.413 1.413 0 0 0-.9 2.331 1.667 1.667 0 0 0 .293.219c-.076 1 .063 1.771.328 1.894.945.441.984 1.382 1.877 2.531a2.387 2.387 0 0 0 3.236.219 2.622 2.622 0 0 1 1-.843c.1-.092 0-.27 0-.27.3-.281.129-.83.129-.83l.829.195a22.521 22.521 0 0 0 .957-5.158z" class="cls-11" transform="translate(-3909.289 9.278)"/>
                        <path id="Path_1438" d="M3861.793 67.572c2.295 2.054-7.32 8.208-10.439 11.72s-8.465 14.236-8.465 14.236l-2.387 3.365-.569.19a.687.687 0 0 1-.654-.232c-.42.061-.712-.585-.712-.585-.49-.175-.685-.315-.74-.421a2.974 2.974 0 0 1 .393-2.166c.2-.068.3.847.335 1.389l2.233-2.16c3.079-12.7 7.687-20.307 13.368-24.575s7.641-.762 7.641-.762z" class="cls-11" transform="translate(-3800.327 -50.82)"/>
                        <path id="Path_1439" d="M3895.436 76.206l-6.035-3.64s5.84-6.736 9.1-8.169 5.723-.608 6.131.48.712 1.791-1.375 3.951-7.818 7.378-7.818 7.378z" class="cls-14" transform="translate(-3842.488 -48.711)"/>
                        <path id="Path_1440" d="M3893.553 196.04c4.979 1.064 14.106 2.114 17.884-1.13l.4 1.389c-1.369 1.3-2.376 1.38-4.081 1.833-4.47 1.042-10.525.375-14.4-.846l.2-1.247z" class="cls-10" transform="translate(-3845.713 -155.836)"/>
                        <path id="Path_1441" d="M3930.8 203.345h-5.488a2.128 2.128 0 0 1-2.127-2.128v-.568a2.127 2.127 0 0 1 2.127-2.126h5.488a2.126 2.126 0 0 1 2.126 2.126v.568a2.128 2.128 0 0 1-2.126 2.128z" class="cls-10" transform="translate(-3870.055 -158.784)"/>
                        <path id="Path_1442" d="M3930.843 208.959a7.974 7.974 0 0 1-3.179-.66l-.752-.327a.132.132 0 0 1-.069-.178.147.147 0 0 1 .187-.064l.751.327a7.654 7.654 0 0 0 6.99-.453.148.148 0 0 1 .194.042.128.128 0 0 1-.043.184 7.908 7.908 0 0 1-4.08 1.13z" transform="translate(-3873.031 -166.177)"/>
                        <path id="Path_1443" d="M3968.236-13.711a.433.433 0 0 1 .642-.129c.821.639 2.744 2.034 3.881 2.034 1.476 0 4.132-1.716 3.5-3.816a7.4 7.4 0 0 0-.363-.855c-.364-.762-1.155.557-1.641.551a1.648 1.648 0 0 1-.686-.208 11.274 11.274 0 0 0-7.677-1.061 5.4 5.4 0 0 0-3.892 3.336c-.5 1.615 0 3.265 0 4.511 0 .974 1.329 1.815 1.914 2.139a.432.432 0 0 0 .493-.054l.849-.742a.432.432 0 0 0 .142-.4 4.413 4.413 0 0 1 .253-2.483c.312-.667.612-.694.824-.575a.428.428 0 0 0 .579-.169z" class="cls-14" transform="translate(-3901.549 17.468)"/>
                        <path id="Path_1444" d="M4020.987 460.464h-3.008a6.028 6.028 0 0 0-.326 2.368c.233.551 1.437 0 2.446 0s3.612.44 3.806.44 2.1-.477 2.1-.477-3.33-.475-5.018-2.331z" class="cls-14" transform="translate(-3947.103 -372.532)"/>
                        <path id="Path_1445" d="M3841.923 445.262a3.589 3.589 0 0 1-.833-2.784l-.138-.051a25.87 25.87 0 0 1-2.981-1.247c-1.255 1.093-2.977 2.5-2.977 2.5s1.809 1.214 2.872 2.071c1.348 1.085 2.5 1.039 5.766 1.039s-.944-.805-1.709-1.528z" class="cls-14" transform="translate(-3798.091 -356.796)"/>
                    </g>
                    <g id="Group_2260" transform="translate(58.631 24.564)">
                        <path id="Path_1446" d="M3953.832 121.228s-.571-.061-.633.367a22.019 22.019 0 0 0-.062 3.288c.1.449-.041 1.143.388 1.532a1.708 1.708 0 0 0 1.225.531c.49.02 6.228-.2 6.228-.2s.307.041.287-1.593a12.4 12.4 0 0 0-.2-3.39 2.476 2.476 0 0 0-1.042-.551c-.122-.02-1.266-.041-2-.02a41.375 41.375 0 0 0-4.191.036z" class="cls-23" transform="translate(-3953.094 -120.209)"/>
                        <path id="Path_1447" d="M3961.719 121.759a2.47 2.47 0 0 0-1.042-.551c-.122-.02-1.266-.041-2-.02a41.374 41.374 0 0 0-4.187.041s-.44-.047-.589.232c.25.246.639.553.793.708.2.2.694-.041 1.1-.02s3.146.123 3.533.143c.322.017 1.942-.065 2.514-.1a.986.986 0 0 0-.122-.433z" class="cls-23" transform="translate(-3953.752 -120.209)"/>
                        <path id="Path_1448" d="M3965.006 128.01a16.662 16.662 0 0 0-.159-3.305 5.794 5.794 0 0 0-.678-.023 55.385 55.385 0 0 0-5.575.1s-.837-.2-.9.327.062 3.594.123 4a4.41 4.41 0 0 0 .11.593 1.828 1.828 0 0 0 .563.1c.49.02 6.229-.2 6.229-.2s.308.042.287-1.592z" class="cls-23" transform="translate(-3956.835 -123.07)"/>
                        <path id="Path_1449" d="M3957.816 134.924h7.156a7.2 7.2 0 0 0 .044-1c-.009-.74-.006-1.444-.021-2.022h-7.3c.005 1.018.076 2.546.121 3.022z" class="cls-24" transform="translate(-3956.845 -128.984)"/>
                        <circle id="Ellipse_106" cx="1.797" cy="1.797" r="1.797" fill="#0e3e51" transform="translate(2.731 3.269)"/>
                        <circle id="Ellipse_107" cx="1.797" cy="1.797" r="1.797" fill="#062136" transform="translate(2.8 3.47)"/>
                        <circle id="Ellipse_108" cx="1.287" cy="1.287" r="1.287" class="cls-23" transform="translate(3.311 3.98)"/>
                        <path id="Path_1450" d="M3962.8 127.376a2.438 2.438 0 0 0-.024-.505.852.852 0 0 0-.1 0 8.511 8.511 0 0 0-.853.016s-.127-.031-.137.05.01.549.019.612a.711.711 0 0 0 .017.091.278.278 0 0 0 .086.015c.075 0 .952-.031.952-.031s.04.002.04-.248z" class="cls-23" transform="translate(-3960.097 -124.872)"/>
                        <path id="Path_1451" d="M3959.343 118.968c0-.09-.179-.163-.4-.163s-.4.073-.4.163v.674c0 .09.179.163.4.163s.4-.073.4-.163z" class="cls-11" transform="translate(-3957.542 -118.296)"/>
                        <ellipse id="Ellipse_109" cx=".398" cy=".163" class="cls-11" rx=".398" ry=".163" transform="translate(1.003 .508)"/>
                        <path id="Path_1452" d="M3987.022 119.6c0-.09-.178-.163-.4-.163s-.4.073-.4.163v.429c0 .09.178.163.4.163s.4-.073.4-.163z" class="cls-11" transform="translate(-3980.131 -118.812)"/>
                        <ellipse id="Ellipse_110" cx=".398" cy=".163" class="cls-11" rx=".398" ry=".163" transform="translate(6.096 .625)"/>
                        <path id="Path_1453" d="M3965.335 116.1l1.531-.059a3.822 3.822 0 0 1 .638.351 14.2 14.2 0 0 1 .83 1.275s-.865.023-2.134.047-1.193-.041-1.193-.041l-.538-.725s-.047-.029.023-.076.69-.749.843-.772z" class="cls-11" transform="translate(-3962.363 -116.041)"/>
                        <path id="Path_1454" d="M3971.26 116.513a.932.932 0 0 0-.1-.121 3.823 3.823 0 0 0-.637-.351l-1.532.059a.171.171 0 0 0-.056.025c.183.152.546.449.641.5a7.184 7.184 0 0 0 1.3-.082z" class="cls-11" transform="translate(-3966.021 -116.041)"/>
                        <path id="Path_1455" d="M3970.243 118.239c-.345.019-1.581.154-1.632.18s-.1.152-.292.38c-.143.168-.426.515-.566.687a8.308 8.308 0 0 0 1.139.02c1.269-.023 2.134-.047 2.134-.047s-.571-.959-.783-1.22z" class="cls-24" transform="translate(-3965.056 -117.835)"/>
                    </g>
                    <g id="Group_2261" transform="translate(58.55 11.37)">
                        <path id="Path_1456" d="M3953.879 48.931c-.4-1.486-.713-2.66-.294-3.251a1.94 1.94 0 0 1 1.421-.584 1.787 1.787 0 0 1 .162-.232 1.653 1.653 0 0 1 .425-.525 3.372 3.372 0 0 0-.437 0 2.719 2.719 0 0 0-2.171.913c-.619.873-.265 2.195.184 3.867.19.71.406 1.515.571 2.374a42.745 42.745 0 0 1 .688 7.664l.735.012a43.489 43.489 0 0 0-.7-7.815c-.171-.882-.39-1.7-.584-2.423z" class="cls-23" transform="translate(-3952.653 -44.333)"/>
                        <path id="Path_1457" d="M3982.771 66.805c-.008-.174-.014-.38-.021-.612a19.16 19.16 0 0 0-.3-3.291l-.02.033a1.663 1.663 0 0 1-.6.706 21.747 21.747 0 0 1 .185 2.572c.007.238.013.451.021.629.1 2.01.123 7.059.123 7.11h.735c0-.052-.021-5.119-.123-7.147z" class="cls-23" transform="translate(-3976.462 -59.486)"/>
                    </g>
                </g>
            </g>
        </g>
    </g>
</svg>
