<svg xmlns="http://www.w3.org/2000/svg" width="30.95" height="33.706" viewBox="0 0 30.95 33.706">
    <defs>
        <style>
            .cls-1{fill:#264a9f;stroke:#264a9f;stroke-width:.3px}
        </style>
    </defs>
    <g id="Group_2750" transform="translate(195.51 -249.712)">
        <path id="Path_1656" d="M-175.167 268.523a9.356 9.356 0 0 1-9.33-9.331 9.341 9.341 0 0 1 9.33-9.33 9.342 9.342 0 0 1 9.331 9.33 9.342 9.342 0 0 1-9.331 9.331zm0-17.267a7.955 7.955 0 0 0-7.939 7.937 7.947 7.947 0 0 0 7.933 7.937 7.949 7.949 0 0 0 7.94-7.935 7.946 7.946 0 0 0-7.934-7.939z" class="cls-1"/>
        <path id="Path_1657" d="M-170.535 257.838a.7.7 0 0 1-.661-.472.86.86 0 0 0-.442-.457.844.844 0 0 0-.341-.071.846.846 0 0 0-.776.507.7.7 0 0 1-.64.417.691.691 0 0 1-.278-.059.7.7 0 0 1-.358-.918 2.229 2.229 0 0 1 1.156-1.155 2.214 2.214 0 0 1 .894-.189 2.238 2.238 0 0 1 2.052 1.344.882.882 0 0 1 .056.124.7.7 0 0 1-.032.535.7.7 0 0 1-.4.356.714.714 0 0 1-.23.038z" class="cls-1"/>
        <path id="Path_1658" d="M-179.771 257.762a.691.691 0 0 1-.278-.059.7.7 0 0 1-.358-.918 2.229 2.229 0 0 1 1.156-1.155 2.216 2.216 0 0 1 .9-.189 2.238 2.238 0 0 1 2.051 1.344.691.691 0 0 1-.339.822.683.683 0 0 1-.33.084.7.7 0 0 1-.618-.369.824.824 0 0 0-.423-.413.837.837 0 0 0-.341-.071.846.846 0 0 0-.775.507.7.7 0 0 1-.64.417z" class="cls-1"/>
        <path id="Path_1659" d="M-190.476 283.268a.7.7 0 0 1-.606-.349l-4.145-7.181a.7.7 0 0 1 .256-.952l8.347-4.818a4.656 4.656 0 0 1 2.339-.632 4.646 4.646 0 0 1 1.213.162l6.217 1.667a2.693 2.693 0 0 1 1.993 2.6v.52l5.984-3.456a2.7 2.7 0 0 1 1.341-.36 2.7 2.7 0 0 1 2.331 1.345 2.7 2.7 0 0 1-.986 3.673l-9.308 5.374a4.672 4.672 0 0 1-2.335.627c-.1 0-.2 0-.306-.01l-8.144-.525-3.844 2.22a.7.7 0 0 1-.347.095zm6.193-12.541a3.262 3.262 0 0 0-1.644.444l-7.743 4.472 3.449 5.975 3.423-1.975a.7.7 0 0 1 .348-.093l8.4.541c.071 0 .142.007.213.007a3.3 3.3 0 0 0 1.644-.442l9.385-5.419.011-.021a1.306 1.306 0 0 0 .37-1.594 1.289 1.289 0 0 0-1.169-.732 1.276 1.276 0 0 0-.568.132l-7.119 4.109a3.327 3.327 0 0 1-1.673.451 3.364 3.364 0 0 1-.87-.115l-5.287-1.414a1.032 1.032 0 0 1-.147-.037.7.7 0 0 1-.416-.9.7.7 0 0 1 .657-.46.712.712 0 0 1 .241.043l4.891 1.309a1.23 1.23 0 0 0 .2.052 1.4 1.4 0 0 0 .223.019 1.3 1.3 0 0 0 1.279-1.079 1.3 1.3 0 0 0-.217-.971 1.293 1.293 0 0 0-.841-.533l-6.187-1.659a3.277 3.277 0 0 0-.853-.11z" class="cls-1"/>
        <path id="Path_1660" d="M-175.166 264.538a5.372 5.372 0 0 1-4.834-3.054.917.917 0 0 1-.063-.128.7.7 0 0 1 .018-.537.7.7 0 0 1 .392-.365.7.7 0 0 1 .246-.045.7.7 0 0 1 .655.455 3.981 3.981 0 0 0 1.883 1.9 3.907 3.907 0 0 0 1.7.385 3.974 3.974 0 0 0 3.573-2.257.7.7 0 0 1 .594-.324.7.7 0 0 1 .244.043.7.7 0 0 1 .41.9 5.35 5.35 0 0 1-2.526 2.512 5.294 5.294 0 0 1-2.292.515z" class="cls-1"/>
    </g>
</svg>
