<svg xmlns="http://www.w3.org/2000/svg" width="29.948" height="29.951" viewBox="0 0 29.948 29.951">
    <defs>
        <style>
            .cls-1{fill:#264a9f}
        </style>
    </defs>
    <g id="Group_2748" transform="translate(297.789 -254.833)">
        <path id="Path_1645" d="M-272.8 284.784a.834.834 0 0 1-.593-.246l-4.9-4.894-4.207 4.208a.837.837 0 0 1-.4.223.8.8 0 0 1-.191.023.849.849 0 0 1-.818-.653l-4.116-17.836a.833.833 0 0 1 0-.375.838.838 0 0 1 .818-.655.8.8 0 0 1 .19.023l17.838 4.116a.825.825 0 0 1 .4.223.843.843 0 0 1 0 1.19l-4.207 4.207 4.894 4.893a.845.845 0 0 1 0 1.191l-4.116 4.116a.839.839 0 0 1-.592.246zm-5.486-7.171a.834.834 0 0 1 .593.246l4.9 4.895 2.926-2.927-4.894-4.893a.84.84 0 0 1-.245-.6.833.833 0 0 1 .246-.6l3.73-3.728-15.048-3.475 3.472 15.049 3.731-3.731a.835.835 0 0 1 .591-.236z" class="cls-1"/>
        <path id="Path_1646" d="M-291.792 261.67a.839.839 0 0 1-.6-.246l-1.941-1.941a.836.836 0 0 1 .021-1.135.836.836 0 0 1 .611-.263.839.839 0 0 1 .578.23l1.919 1.919a.843.843 0 0 1 .247.6.834.834 0 0 1-.246.594.839.839 0 0 1-.589.242z" class="cls-1"/>
        <path id="Path_1647" d="M-296.948 267.2a.842.842 0 0 1-.841-.841.842.842 0 0 1 .841-.841h2.743a.842.842 0 0 1 .841.841.842.842 0 0 1-.841.841z" class="cls-1"/>
        <path id="Path_1648" d="M-293.733 274.782a.839.839 0 0 1-.6-.246.843.843 0 0 1 0-1.189l1.94-1.941a.839.839 0 0 1 .6-.246.833.833 0 0 1 .593.246.833.833 0 0 1 .246.6.835.835 0 0 1-.246.6l-1.939 1.94a.839.839 0 0 1-.594.236z" class="cls-1"/>
        <path id="Path_1649" d="M-280.584 261.634a.838.838 0 0 1-.579-.231.838.838 0 0 1-.262-.589.838.838 0 0 1 .23-.6l1.92-1.919a.834.834 0 0 1 .594-.245.834.834 0 0 1 .594.246.841.841 0 0 1 0 1.188l-1.939 1.94a.834.834 0 0 1-.558.21z" class="cls-1"/>
        <path id="Path_1650" d="M-286.259 259.258a.841.841 0 0 1-.84-.841v-2.743a.841.841 0 0 1 .84-.841.842.842 0 0 1 .841.841v2.743a.842.842 0 0 1-.841.841z" class="cls-1"/>
    </g>
</svg>
