<svg xmlns="http://www.w3.org/2000/svg" width="220.872" height="113.743" viewBox="0 0 220.872 113.743">
    <defs>
        <linearGradient id="linear-gradient" x1=".482" x2=".485" y1=".031" y2=".774" gradientUnits="objectBoundingBox">
            <stop offset="0" stop-color="#00bede" stop-opacity=".988"/>
            <stop offset="1" stop-color="#35e1ca" stop-opacity=".11"/>
        </linearGradient>
        <linearGradient id="linear-gradient-2" x1=".518" x2=".482" y1="1.921" y2="-1.337" gradientUnits="objectBoundingBox">
            <stop offset="0" stop-color="#0060ff"/>
            <stop offset="1" stop-color="#84b2ff"/>
        </linearGradient>
        <linearGradient id="linear-gradient-3" x1=".484" x2=".486" y1=".294" y2=".815" gradientUnits="objectBoundingBox">
            <stop offset="0" stop-color="#238bea"/>
            <stop offset=".732" stop-color="#1fd3d2" stop-opacity=".4"/>
            <stop offset="1" stop-color="#35d3e1" stop-opacity=".141"/>
        </linearGradient>
        <style>
            .cls-1,.cls-11,.cls-2{fill:#fff}.cls-2{stroke:transparent}.cls-14,.cls-2,.cls-22{stroke-miterlimit:10}.cls-9{fill:#e2edff}.cls-14,.cls-22,.cls-5{fill:none}.cls-25,.cls-6{fill:#002226}.cls-11,.cls-18,.cls-22,.cls-9{stroke:#002226}.cls-14{stroke:#195dff}.cls-14,.cls-22{stroke-linecap:round}.cls-18{fill:#f8feff;isolation:isolate}.cls-24,.cls-25{stroke:none}
        </style>
    </defs>
    <g id="Group_12164" transform="translate(.5)">
        <g id="Group_1414">
            <g id="Group_1412" transform="translate(162.504 20.288)">
                <ellipse id="Ellipse_13" cx="3.954" cy="4.207" class="cls-1" rx="3.954" ry="4.207" transform="rotate(-3.947 7.894 .272)"/>
                <path id="Union_4" d="M26.644 41.058l-.024.04s-.056-.038-.163-.115a4.269 4.269 0 0 1-1.641-1.253C19.653 35.592 4.882 22.111 0 0c0 0 6.209 17.189 29.32 32.652a4.207 4.207 0 0 1 1.57 1.031l.1.062-.015.025a4.6 4.6 0 0 1 1.185 2.8 4.322 4.322 0 0 1-3.865 4.726q-.138.01-.275.01a3.953 3.953 0 0 1-1.376-.248z" class="cls-2" transform="rotate(-169 19.152 25.614)"/>
            </g>
            <path id="Path_552" fill="url(#linear-gradient)" d="M1097.174 168.633v-19.31c0-38.838 33.279-70.323 74.331-70.323s74.331 31.485 74.331 70.323v19.31" opacity="0.2" transform="translate(-1043.875 -77.749)"/>
            <path id="Path_527" fill="#e2edff" d="M1407.735 330.023h-59.921v-18.679h52.821l4.928 4.005a5.88 5.88 0 0 1 2.172 4.564z" transform="translate(-1228.498 -248.762)"/>
            <g id="Path_529" class="cls-5">
                <path d="M1325.589 341.609c0-6.817 3.09-12.344 6.9-12.344h-7.324c-3.813 0-6.9 5.527-6.9 12.344s3.091 12.344 6.9 12.344h7.324c-3.809 0-6.9-5.526-6.9-12.344z" class="cls-24" transform="translate(-1206.456 -262.073)"/>
                <path d="M1328.276 352.953c-.559-.588-1.075-1.3-1.538-2.127-1.386-2.478-2.149-5.752-2.149-9.217 0-3.465.763-6.738 2.15-9.217.462-.827.978-1.539 1.537-2.127h-3.107c-1.466 0-2.89 1.102-4.009 3.104-1.222 2.185-1.895 5.111-1.895 8.24 0 3.13.673 6.056 1.895 8.24 1.12 2.002 2.543 3.104 4.01 3.104h3.106m4.217 1h-7.324c-3.813 0-6.904-5.526-6.904-12.344 0-6.817 3.091-12.344 6.904-12.344h7.324c-3.813 0-6.904 5.527-6.904 12.344 0 6.818 3.09 12.344 6.904 12.344z" class="cls-25" transform="translate(-1206.456 -262.073)"/>
            </g>
            <ellipse id="Ellipse_8" cx="6.904" cy="12.344" class="cls-6" rx="6.904" ry="12.344" transform="translate(119.105 67.192)"/>
            <ellipse id="Ellipse_9" cx="4.895" cy="9.626" class="cls-1" rx="4.895" ry="9.626" transform="translate(121.669 69.916)"/>
            <g id="Path_530" class="cls-5">
                <path d="M1172.248 341.609c0-6.817 3.091-12.344 6.9-12.344h-7.324c-3.813 0-6.9 5.527-6.9 12.344s3.091 12.344 6.9 12.344h7.324c-3.809 0-6.9-5.526-6.9-12.344z" class="cls-24" transform="translate(-1092.751 -262.073)"/>
                <path d="M1174.935 352.953c-.559-.588-1.075-1.3-1.538-2.127-1.386-2.478-2.15-5.752-2.15-9.217 0-3.465.764-6.738 2.15-9.217.463-.827.98-1.539 1.538-2.127h-3.107c-1.466 0-2.89 1.102-4.009 3.104-1.222 2.185-1.895 5.111-1.895 8.24 0 3.13.673 6.056 1.895 8.24 1.12 2.002 2.543 3.104 4.01 3.104h3.106m4.217 1h-7.324c-3.813 0-6.904-5.526-6.904-12.344 0-6.817 3.091-12.344 6.904-12.344h7.324c-3.813 0-6.904 5.527-6.904 12.344 0 6.818 3.091 12.344 6.904 12.344z" class="cls-25" transform="translate(-1092.751 -262.073)"/>
            </g>
            <g id="Ellipse_10" fill="none" stroke="#002226" transform="translate(79.469 67.192)">
                <ellipse cx="6.904" cy="12.344" class="cls-24" rx="6.904" ry="12.344"/>
                <ellipse cx="6.904" cy="12.344" rx="6.404" ry="11.844"/>
            </g>
            <g id="Path_531" class="cls-5">
                <path d="M1507.9 341.609c0-6.817 3.091-12.344 6.9-12.344h-7.324c-3.813 0-6.9 5.527-6.9 12.344s3.091 12.344 6.9 12.344h7.324c-3.814 0-6.9-5.526-6.9-12.344z" class="cls-24" transform="translate(-1341.638 -262.073)"/>
                <path d="M1510.582 352.953c-.559-.588-1.075-1.3-1.538-2.127-1.386-2.478-2.149-5.752-2.149-9.217 0-3.465.763-6.738 2.15-9.217.462-.827.979-1.539 1.537-2.127h-3.107c-1.466 0-2.89 1.102-4.009 3.104-1.222 2.184-1.895 5.111-1.895 8.24 0 3.13.673 6.056 1.895 8.24 1.12 2.002 2.543 3.104 4.01 3.104h3.106m4.217 1h-7.324c-3.813 0-6.904-5.526-6.904-12.344 0-6.817 3.091-12.344 6.904-12.344h7.324c-3.813 0-6.904 5.527-6.904 12.344 0 6.818 3.091 12.344 6.904 12.344z" class="cls-25" transform="translate(-1341.638 -262.073)"/>
            </g>
            <ellipse id="Ellipse_11" cx="6.904" cy="12.344" class="cls-6" rx="6.904" ry="12.344" transform="translate(166.23 67.192)"/>
            <ellipse id="Ellipse_12" cx="4.895" cy="9.626" class="cls-1" rx="4.895" ry="9.626" transform="translate(168.797 69.916)"/>
            <path id="Path_532" fill="url(#linear-gradient-2)" d="M1197.492 355.156h-8.855l-.495-.495a2.722 2.722 0 0 0-1.925-.8h-22.135a2.721 2.721 0 0 0-1.924.8l-.3.3h-.807a4.755 4.755 0 0 1-4.755-4.755v-7.3h50.236l-4 8.689a5.343 5.343 0 0 1-5.04 3.561z" transform="translate(-1086.403 -272.152)"/>
            <path id="Path_533" d="M1197.492 355.156h-8.855l-.495-.495a2.722 2.722 0 0 0-1.925-.8h-22.135a2.721 2.721 0 0 0-1.924.8l-.3.3h-.807a4.755 4.755 0 0 1-4.755-4.755v-7.3h50.236l-4 8.689a5.343 5.343 0 0 1-5.04 3.561z" class="cls-9" transform="translate(-1086.403 -272.152)"/>
            <path id="Path_534" fill="#1a2e35" d="M1516.059 210.435a.17.17 0 0 1-.087-.024.172.172 0 0 1-.062-.236l2.411-4.134a.172.172 0 0 1 .3.174l-2.411 4.134a.172.172 0 0 1-.151.086z" transform="translate(-1352.961 -170.584)"/>
            <path id="Path_535" d="M1421.507 234.406v-4.7c0-2.469-3.589-14.124-8.527-16.306s-16.88-3.158-24.4-2.756-17.555 16.133-17.555 16.133l1.057 13c1.529 0 6.433.076 7.148 13.463a3.681 3.681 0 0 0 3.67 3.493h26.338a3.673 3.673 0 0 0 3.638-3.157c.676-4.77 2.487-13.265 6.823-13.265a5.378 5.378 0 0 1 5.225 5.59 20.242 20.242 0 0 0-2.324-9.416z" class="cls-9" transform="translate(-1245.693 -173.554)"/>
            <path id="Path_536" d="M1249.084 210.9c-13.7 0-29.224 16.133-29.224 16.133h39.228s10.034-15.731 17.555-16.133z" class="cls-11" transform="translate(-1133.568 -173.736)"/>
            <path id="Path_538" d="M1212.018 273.068l-14.492 11.432-38.992-.124a13.763 13.763 0 0 0-2.239 6.813h50.236a7.791 7.791 0 0 1 6.578-4.593c.001-4.054-1.091-13.528-1.091-13.528z" class="cls-9" transform="translate(-1086.415 -220.375)"/>
            <path id="Path_540" d="M1164.924 284.379s6.85-7.981 14.256-11.311h39.228l-14.491 11.432z" class="cls-9" transform="translate(-1092.81 -220.36)"/>
            <path id="Rectangle_2164" d="M0 0H25.722V0.746H0z" transform="translate(76.75 63.998)"/>
            <path id="Path_541" d="M1277.846 298.562l1.383-1.383a2.287 2.287 0 0 1 1.131-.618l10.408-2.267a2.284 2.284 0 0 1 1.106.033l.557.157a2.287 2.287 0 0 1 1.1 3.708l-2.237 2.557a2.286 2.286 0 0 1-1.51.771l-10.11.936a2.286 2.286 0 0 1-1.825-.657 2.287 2.287 0 0 1-.003-3.237z" class="cls-11" transform="translate(-1175.992 -236.054)"/>
            <path id="Path_542" d="M1168.168 304.795l-1.143-2.131a1.878 1.878 0 0 0-.69-.724 1.879 1.879 0 0 0-1.839-.052l-.864.453a1.877 1.877 0 0 0-.907 1.061l-.53 1.56a1.879 1.879 0 0 0 1.46 2.455l2.38.411a1.879 1.879 0 0 0 1.974-.961l.158-.293a1.877 1.877 0 0 0 .001-1.779z" class="cls-11" transform="translate(-1090.644 -241.56)"/>
            <path id="Path_543" fill="#fff" stroke="#000" d="M1396.411 234.372h36.266a1.971 1.971 0 0 0 1.887-2.539c-.825-2.759-2.415-7.065-4.791-9.263a1.988 1.988 0 0 0-.941-.482 137.9 137.9 0 0 0-16.246-1.86 16.03 16.03 0 0 0-12.541 4.766 44.013 44.013 0 0 0-5.232 6.384 1.925 1.925 0 0 0 1.598 2.994z" transform="translate(-1263.047 -181.153)"/>
            <path id="Path_544" d="M1296.786 352.626a2.654 2.654 0 1 1-2.584-2.048 2.363 2.363 0 0 1 2.584 2.048z" transform="translate(-1186.68 -277.817)"/>
            <path id="Path_545" d="M1224.86 310.629c.848 0 1.262.867.924 1.937a2.649 2.649 0 0 1-2.146 1.937c-.848 0-1.261-.867-.924-1.937a2.649 2.649 0 0 1 2.146-1.937z" class="cls-6" transform="translate(-1135.5 -248.196)"/>
            <path id="Path_546" d="M1160.178 352.626c0 1.131-.326 2.048-.727 2.048s-.727-.917-.727-2.048.326-2.048.727-2.048.727.917.727 2.048z" transform="translate(-1088.139 -277.817)"/>
            <path id="Path_547" d="M1397.594 263.864V262.7a2.242 2.242 0 0 1 2.7-2.194l4.416.921a2.242 2.242 0 0 1 1.784 2.194v.24a2.242 2.242 0 0 1-2.241 2.242h-4.416a2.242 2.242 0 0 1-2.243-2.239z" class="cls-6" transform="translate(-1265.267 -211.001)"/>
            <path id="Path_548" d="M1482.521 221.762s-.589-.059-1.617-.15c4.543 9.306 3.385 13.812 3.385 13.812h3.464c.035-5.664-5.232-13.662-5.232-13.662z" class="cls-6" transform="translate(-1327.034 -182.207)"/>
            <path id="Path_549" fill="#edf0f5" d="M1276.456 232.174a2.956 2.956 0 0 1-2.941 2.672h-17.852c-1.3 0-1.775-1.452-.832-2.536a50.625 50.625 0 0 1 5.532-5.4 16.361 16.361 0 0 1 11.439-4.031l1.477.108a2.958 2.958 0 0 1 2.664 2.332 22.475 22.475 0 0 1 .513 6.855z" opacity="0.51" transform="translate(-1159.065 -183.118)"/>
            <path id="Path_550" d="M1495.041 303.847a.173.173 0 0 1-.172-.172c0-3.486 1.777-17.86 2.243-20.016a13.158 13.158 0 0 0 0-5.943.172.172 0 0 1 .33-.1 13.509 13.509 0 0 1 0 6.114c-.464 2.149-2.235 16.471-2.235 19.944a.172.172 0 0 1-.166.173z" class="cls-6" transform="translate(-1337.378 -223.679)"/>
            <path id="Path_551" d="M1480.261 296.88h-4.2a.52.52 0 0 1-.524-.636l.086-.488a.8.8 0 0 1 .749-.636h4.2a.52.52 0 0 1 .523.636l-.086.488a.8.8 0 0 1-.748.636z" transform="translate(-1323.043 -236.691)"/>
            <path id="Path_553" d="M1097.174 168v-19.175c0-38.563 33.279-69.825 74.331-69.825s74.331 31.262 74.331 69.825V168" class="cls-14" transform="translate(-1043.096 -77.218)"/>
            <path id="Line_61" d="M0 0L101.461 0" class="cls-14" transform="translate(118.411 92.285)"/>
            <path id="Line_194" d="M0 0L41.005 0" class="cls-14" transform="translate(0 92.285)"/>
            <path id="Line_195" d="M0 0L22.455 0" class="cls-14" transform="translate(72.017 92.285)"/>
            <path id="Path_562" fill="#0e215c" d="M1084.909 500.68h-4.76a3.4 3.4 0 0 1 2.252-.8.225.225 0 0 0 .22-.23.222.222 0 0 0-.23-.221 3.628 3.628 0 0 0-2.862 1.248h-10.487a.226.226 0 0 0 0 .451h15.867a.226.226 0 0 0 0-.451z" transform="translate(-1021.488 -388.181)"/>
            <path id="Path_990" fill="url(#linear-gradient-3)" d="M1097.174 168.633v-19.31c0-38.838 33.279-70.323 74.331-70.323s74.331 31.485 74.331 70.323v19.31" opacity="0.2" transform="translate(-1043.096 -76.97)"/>
            <path id="Path_554" fill="#35d3e1" stroke="#002226" d="M1126.921 118.591h-4.771a.157.157 0 0 1-.146-.215l4.038-10.257a.157.157 0 0 1 .146-.1h4.771a.157.157 0 0 1 .146.214l-4.038 10.257a.157.157 0 0 1-.146.101z" transform="translate(-1060.912 -97.928)"/>
            <path id="Path_555" d="M1128.935 116.4h-3.271a.108.108 0 0 1-.1-.147l2.768-7.033a.108.108 0 0 1 .1-.068h3.271a.108.108 0 0 1 .1.147l-2.769 7.033a.108.108 0 0 1-.099.068z" class="cls-1" transform="translate(-1063.022 -98.239)"/>
            <path id="Path_556" d="M1069.425 374.453s-.984-11.177-2.039-21.44 1.758-11.388 2.531-12.654c.512-.837.162-3.644-.134-5.447l-5-.206.826 4.852a1.67 1.67 0 0 1-.125.973c-3.072 6.743-1.087 12.075.494 19.089a61.452 61.452 0 0 1 1.415 12.962 2.388 2.388 0 0 1-.337 1.2 13.2 13.2 0 0 0-1.641 4.652.534.534 0 0 0 .542.614l2.274-.057c-.346-1.008 1.194-4.538 1.194-4.538z" class="cls-18" transform="translate(-1017.704 -266.202)"/>
            <path id="Path_557" d="M1087.459 378.063c-.943-.407-3.49-1.738-4.821-2.439a1.343 1.343 0 0 1-.7-1.377c.7-4.928 3.963-27.792 4.693-31.051a21.5 21.5 0 0 0 .172-7.381l-7.662-.316c.3 1.8.646 4.61.134 5.448-.773 1.265-3.585 2.39-2.531 12.653s2.038 21.44 2.038 21.44-1.54 3.53-1.192 4.542l13.016-.324c.012-.984-1.845-.632-3.147-1.195z" class="cls-18" transform="translate(-1027.188 -266.789)"/>
            <path id="Path_558" fill="#dcf5f8" stroke="#000" d="M1043.2 175.186s2.557 14.44 1.8 15.891-7.876 12.73-8.36 24.813c0 0 2.695 4.068 13.818 3.1s11.083-1.658 11.083-1.658l-.914-6.909 2.2 6.357 1.313-.684s-3.8-9.887-4.077-13.895-2.694-9.805-2.694-9.805 2.418-11.268 1.865-15.69-16.034-1.52-16.034-1.52z" transform="translate(-997.532 -147.136)"/>
            <path id="Path_559" fill="#edf0f5" stroke="#002226" d="M1111.71 134.452s3.422-3.952 4.5-4.043-1.734 3.516-1.734 3.516 2.069 1.179 2.024 1.769a17.7 17.7 0 0 1-1.115 2.845z" transform="translate(-1053.284 -114.506)" style="isolation:isolate" stroke-width="0.7px"/>
            <path id="Path_560" d="M1104.721 124.143s3.586-1.277 5.47 1.845 2.241 5.585 2.917 7.922c4.106 16.684-.487-7.007 0-8.76s1.762-2.665 1.823-3.759-.426-4.311.182-4.192 1.154 3.037 1.154 3.037l1.033-3.04s2.262 3.04.888 4.742-2.711 3.525-2.468 4.862 5.031 19.448 2.911 22.061-7.043 2.249-10.75-10.818-3.16-13.9-3.16-13.9z" class="cls-18" transform="translate(-1048.089 -104.723)"/>
            <path id="Path_561" d="M1038.878 79.994s0 7.636-2.833 10.718-3.749 7.748-1.166 10.83c0 0-2.083 6.859 3.5 9.261a9.585 9.585 0 0 0 9.664-1.014s4.248-.833 4.332-4.249c0 0 5-.167 3.916-7.5s-2.571-6.2-2.25-10.483c0 0 5.039-3.823 4.019-9.75s-8.124-9.705-11.814-8.434-7.785 3.735-7.368 10.621z" class="cls-6" transform="translate(-995.106 -69.13)"/>
            <path id="Line_62" d="M0 0L30.378 0" class="cls-14" transform="translate(41.444 113.243)"/>
            <g id="Group_1411" transform="translate(16.109 54.395)">
                <path id="Path_659" fill="#eaf9fb" stroke="#000" stroke-linecap="round" stroke-miterlimit="10" d="M467.341 718.216a6.2 6.2 0 0 0 3.191-2.228 5.737 5.737 0 0 0-.148-6.5c-.736-.9-1.728-1.415-2.362-2.45a4.423 4.423 0 0 1-.256-4.359s2.548-3.141-1.7-5.433c0 0-2.208-1.019-.934-3.82a2.988 2.988 0 0 0-3.057-3.99s-4.331-.425-3.4 4.5c.169.893.625 1.37.079 2.333-1.035 1.824-3.836 1.778-3.686 4.412.083 1.465 1.249 2.645 1.218 4.127-.044 2.069-1.921 2.867-3.072 4.265a6.313 6.313 0 0 0-1.283 2.337c-.823 3.065 1.816 5.405 4.2 6.809" transform="translate(-451.781 -689.426)"/>
                <path id="Line_55" d="M0 14.688L0 0" class="cls-22" transform="translate(9.445 22.508)"/>
                <path id="Line_56" d="M0 10.273L0 0" class="cls-22" transform="translate(9.445 11.216)"/>
                <path id="Line_57" d="M0 2.547L2.633 0" class="cls-22" transform="translate(9.445 15.376)"/>
                <path id="Line_58" d="M1.698 1.698L0 0" class="cls-22" transform="translate(7.747 11.046)"/>
                <path id="Line_59" d="M0 3.566L0 0" class="cls-22" transform="translate(9.7 5.613)"/>
            </g>
        </g>
        <g id="Group_1412-2" opacity="0.78" transform="translate(162.504 20.288)">
            <ellipse id="Ellipse_13-2" cx="3.954" cy="4.207" class="cls-1" rx="3.954" ry="4.207" transform="rotate(-3.947 7.894 .272)"/>
            <path id="Union_4-2" d="M26.644 41.058l-.024.04s-.056-.038-.163-.115a4.269 4.269 0 0 1-1.641-1.253C19.653 35.592 4.882 22.111 0 0c0 0 6.209 17.189 29.32 32.652a4.207 4.207 0 0 1 1.57 1.031l.1.062-.015.025a4.6 4.6 0 0 1 1.185 2.8 4.322 4.322 0 0 1-3.865 4.726q-.138.01-.275.01a3.953 3.953 0 0 1-1.376-.248z" class="cls-2" transform="rotate(-169 19.152 25.614)"/>
        </g>
    </g>
</svg>
