<svg xmlns="http://www.w3.org/2000/svg" width="22.128" height="37.224" viewBox="0 0 22.128 37.224">
    <defs>
        <style>
            .cls-1{fill:#264a9f;stroke:#264a9f;stroke-width:.5px}
        </style>
    </defs>
    <g id="Group_2749" transform="translate(249.623 -251.382)">
        <path id="Path_1652" d="M-236.45 257.848a.659.659 0 0 1-.227-.04.674.674 0 0 1-.389-.348.68.68 0 0 1-.027-.522l.842-2.195a.687.687 0 0 1 .637-.439.686.686 0 0 1 .244.046.685.685 0 0 1 .392.881l-.852 2.219a.674.674 0 0 1-.62.4z" class="cls-1"/>
        <path id="Path_1653" d="M-242.616 257.866a.683.683 0 0 1-.642-.454l-.727-2.237a.682.682 0 0 1 .438-.857.713.713 0 0 1 .209-.033.679.679 0 0 1 .648.472l.734 2.258a.676.676 0 0 1-.433.812.708.708 0 0 1-.227.039z" class="cls-1"/>
        <path id="Path_1654" d="M-239.488 255.326a.68.68 0 0 1-.679-.652l-.04-2.351a.681.681 0 0 1 .67-.691.685.685 0 0 1 .691.668l.041 2.375a.677.677 0 0 1-.651.65z" class="cls-1"/>
        <path id="Path_1655" d="M-241.33 288.353a5.158 5.158 0 0 1-3.647-1.511l-3.445-3.467a3.252 3.252 0 0 1-.864-1.574 3.233 3.233 0 0 1 .422-2.451 3.226 3.226 0 0 1 2.032-1.435l.36-.082-.153-.336a3.248 3.248 0 0 1-.291-1.485 3.233 3.233 0 0 1 3.237-3.106l.468.017-.017-.331a3.225 3.225 0 0 1 2.33-3.286l.487-.141-3.838-3.845a3.263 3.263 0 0 1 0-4.537 3.222 3.222 0 0 1 2.32-.976 3.223 3.223 0 0 1 2.27.926l1.927 1.933.884-1.533a3.682 3.682 0 0 1 3.17-1.849 3.626 3.626 0 0 1 1.842.5 3.64 3.64 0 0 1 1.288 4.978l-1.861 3.238 3.172 3.18a5.079 5.079 0 0 1 1.368 2.483h-.078l.158.409c.044.113.047.148.044.628v.676a13.358 13.358 0 0 1-13.275 12.982zm.33-1.253a11.937 11.937 0 0 0 8.493-3.526 11.937 11.937 0 0 0 3.507-8.452v-.044a6.209 6.209 0 0 0-.02-.7 3.868 3.868 0 0 0-1.107-2.328l-2.143-2.167c-3.387-3.425-3.387-3.425-5.575-5.594l-2.709-2.688a1.981 1.981 0 0 0-1.408-.582 1.982 1.982 0 0 0-1.412.586 2 2 0 0 0 0 2.821l9.645 9.66a.632.632 0 0 1 .073.785.631.631 0 0 1-.526.282.62.62 0 0 1-.346-.105c-.071-.053-.428-.411-1.933-1.917l-2.126-2.126a1.976 1.976 0 0 0-1.426-.6 1.987 1.987 0 0 0-1.346.522 2 2 0 0 0-.123 2.817c.11.091.4.383 1.63 1.611l2.425 2.426a.63.63 0 0 1 0 .887.621.621 0 0 1-.443.182.62.62 0 0 1-.442-.182c-3-3-3.759-3.761-4.01-3.952l.063.025a1.99 1.99 0 0 0-1.419-.593 1.984 1.984 0 0 0-1.413.586 2 2 0 0 0 0 2.822c1.054 1.055 1.124 1.114 1.175 1.157l.076.073-.007-.074c.171.257.785.873 2.7 2.79a.618.618 0 0 1 .184.443.621.621 0 0 1-.183.442.626.626 0 0 1-.443.184.624.624 0 0 1-.443-.184l-2.865-2.865a1.99 1.99 0 0 0-1.237-.434 1.981 1.981 0 0 0-1.409.583 1.975 1.975 0 0 0-.585 1.409 1.98 1.98 0 0 0 .583 1.409l3.444 3.468a3.9 3.9 0 0 0 2.744 1.139zm7.327-26.563a2.385 2.385 0 0 0-2.085 1.225l-1.051 1.82 3.486 3.5 1.7-2.939a2.4 2.4 0 0 0-.889-3.3 2.385 2.385 0 0 0-1.165-.302z" class="cls-1"/>
    </g>
</svg>
