<svg xmlns="http://www.w3.org/2000/svg" width="23.7" height="28.58" viewBox="0 0 23.7 28.58">
    <defs>
        <style>
            .cls-1{fill:#0d3594;stroke:#e8e9ee;stroke-width:.45px}
        </style>
    </defs>
    <g id="Group_2807" transform="translate(-62.775 -769.645)">
        <g id="claim" transform="translate(18.588 769.87)">
            <g id="Group_2794" transform="translate(47.718 8.16)">
                <g id="Group_2793">
                    <path id="Path_1661" d="M115.864 148.522h-10.452a.826.826 0 1 0 0 1.652h10.452a.826.826 0 1 0 0-1.652z" class="cls-1" transform="translate(-104.586 -148.522)"/>
                </g>
            </g>
            <g id="Group_2796" transform="translate(47.718 11.346)">
                <g id="Group_2795">
                    <path id="Path_1662" d="M115.864 206.515h-10.452a.826.826 0 1 0 0 1.652h10.452a.826.826 0 1 0 0-1.652z" class="cls-1" transform="translate(-104.586 -206.515)"/>
                </g>
            </g>
            <g id="Group_2798" transform="translate(47.718 14.66)">
                <g id="Group_2797">
                    <path id="Path_1663" d="M115.864 266.824h-10.452a.826.826 0 1 0 0 1.652h10.452a.826.826 0 1 0 0-1.652z" class="cls-1" transform="translate(-104.586 -266.824)"/>
                </g>
            </g>
            <g id="Group_2800" transform="translate(47.718 17.948)">
                <g id="Group_2799">
                    <path id="Path_1664" d="M109.615 326.673h-4.2a.826.826 0 1 0 0 1.652h4.2a.826.826 0 1 0 0-1.652z" class="cls-1" transform="translate(-104.587 -326.673)"/>
                </g>
            </g>
            <g id="Group_2802" transform="translate(44.412)">
                <g id="Group_2801">
                    <path id="Path_1665" d="M63.128 17.473V2.329A2.331 2.331 0 0 0 60.8 0H49.883a.838.838 0 0 0-.595.246l-4.63 4.629a.835.835 0 0 0-.246.595v16.546a2.331 2.331 0 0 0 2.329 2.329h10.436a5.361 5.361 0 1 0 5.95-6.872zM49.057 2.813v1.83h-1.831zm7.885 19.879h-10.2a.677.677 0 0 1-.677-.677V6.3h3.819a.826.826 0 0 0 .826-.826v-.019-3.803H60.8a.677.677 0 0 1 .677.677v15.144a5.369 5.369 0 0 0-4.535 5.22zm5.358 3.786a3.708 3.708 0 1 1 3.71-3.708 3.713 3.713 0 0 1-3.71 3.708z" class="cls-1" transform="translate(-44.412)"/>
                </g>
            </g>
            <g id="Group_2804" transform="translate(61.476 19.852)">
                <g id="Group_2803">
                    <path id="Path_1666" d="M355.815 361.329a.826.826 0 0 0-.826.826v2.092a.826.826 0 1 0 1.652 0v-2.092a.826.826 0 0 0-.826-.826z" class="cls-1" transform="translate(-354.989 -361.329)"/>
                </g>
            </g>
            <g id="Group_2806" transform="translate(61.476 24.13)">
                <g id="Group_2805">
                    <path id="Path_1667" d="M356.64 439.933a.769.769 0 0 0-.012-.08.662.662 0 0 0-.02-.079c-.008-.025-.017-.051-.027-.076s-.022-.05-.035-.073-.026-.047-.041-.069a.794.794 0 0 0-.049-.065.809.809 0 0 0-.054-.061c-.019-.019-.039-.037-.06-.055a.921.921 0 0 0-.135-.09.914.914 0 0 0-.149-.062c-.026-.008-.052-.014-.078-.02s-.053-.009-.08-.012a.8.8 0 0 0-.162 0c-.026 0-.053.007-.08.012s-.053.012-.079.02a.912.912 0 0 0-.149.062c-.024.013-.047.027-.069.042a.716.716 0 0 0-.065.048c-.021.017-.041.036-.061.055a.8.8 0 0 0-.055.061c-.017.021-.033.042-.048.065s-.029.046-.041.069a.718.718 0 0 0-.034.073.787.787 0 0 0-.028.076c-.008.026-.014.052-.02.079a.793.793 0 0 0-.016.161.808.808 0 0 0 0 .081.783.783 0 0 0 .012.08c.006.026.012.053.02.078a.74.74 0 0 0 .028.076.672.672 0 0 0 .034.073.783.783 0 0 0 .041.069c.015.023.031.045.048.066a.7.7 0 0 0 .055.06.689.689 0 0 0 .061.054.711.711 0 0 0 .065.048q.034.022.069.041c.024.013.048.024.073.035s.05.019.076.027a.668.668 0 0 0 .079.02c.026.005.053.009.08.012a.8.8 0 0 0 .081 0 .792.792 0 0 0 .081 0 .775.775 0 0 0 .08-.012.658.658 0 0 0 .078-.02c.026-.008.051-.017.076-.027s.049-.022.073-.035.047-.026.069-.041a.793.793 0 0 0 .066-.048.838.838 0 0 0 .114-.114c.017-.021.034-.043.049-.066a.806.806 0 0 0 .041-.069c.013-.024.024-.048.035-.073s.019-.05.027-.076a.622.622 0 0 0 .02-.078.783.783 0 0 0 .012-.08.753.753 0 0 0 0-.162z" class="cls-1" transform="translate(-354.993 -439.188)"/>
                </g>
            </g>
        </g>
    </g>
</svg>
