<svg xmlns="http://www.w3.org/2000/svg" width="325.8" height="131.871" viewBox="0 0 325.8 131.871">
    <defs>
        <clipPath id="clip-path">
            <path id="Path_1370" fill="#c6ff00" stroke="#263238" stroke-miterlimit="10" d="M214.171 298.219s-4.592-2.87-25.541-9.758-34.438-9.183-55.1-8.609-48.5 8.322-53.665 10.331-7.462 2.583-6.314 4.018 7.461 6.6 6.6 8.9-14.923 14.919-15.783 16.928 2.87 8.9 3.444 10.618 3.73 2.3 6.313 2.583 186.25 0 186.25 0a10.132 10.132 0 0 0 2.009-7.174c-.574-4.018-1.189-9.317-3.776-12.712-2.094-2.749-4.259-5.655-9.712-6.229-3.425-.361-33.864-8.609-34.725-8.896z" transform="translate(-64.239 -279.767)"/>
        </clipPath>
        <style>
            .cls-11,.cls-12,.cls-13,.cls-14,.cls-18,.cls-19,.cls-20,.cls-8{stroke:#263238}.cls-11,.cls-12,.cls-13,.cls-14,.cls-7,.cls-8{stroke-miterlimit:10}.cls-3{fill-rule:evenodd;fill:#a8cffa}.cls-11,.cls-20,.cls-7{fill:none}.cls-18,.cls-19,.cls-20,.cls-7{stroke-linecap:round}.cls-7{stroke:#002226}.cls-8{fill:#f0f4f3}.cls-10{stroke:#707070;fill:#e2edff}.cls-12,.cls-18{fill:#263238}.cls-13,.cls-14,.cls-19{fill:#fff}.cls-13{stroke-width:1.5px}.cls-18,.cls-19,.cls-20{stroke-linejoin:round}
        </style>
    </defs>
    <g id="Group_2625" transform="translate(.4 .5)">
        <g id="Group_2451">
            <g id="Group_2393" transform="translate(137.814)">
                <g id="Group_2341">
                    <path id="Path_1351" fill="#eaf9fb" fill-rule="evenodd" stroke="#01272c" d="M1210.04 273.172a90.049 90.049 0 0 0 1.388 9.028c.245 1.134.517 2.259.826 3.366.227.835.481 1.661.753 2.477.39 1.18.826 2.332 1.316 3.448a27.919 27.919 0 0 0 10.834 13.021c10.761-6.706 13.837-19.327 15.107-31.34a46.22 46.22 0 0 0-30.224 0z" transform="translate(-1206.958 -267.751)"/>
                    <path id="Path_1352" d="M1225.16 270.625a45.509 45.509 0 0 1 15.1 2.54l-1.062.692v-.006a45.189 45.189 0 0 0-28.087 0v.006l-1.062-.692a45.509 45.509 0 0 1 15.111-2.54z" class="cls-3" transform="translate(-1206.964 -267.746)"/>
                    <path id="Path_1353" fill="#dcecfe" fill-rule="evenodd" stroke="#01272c" d="M1219.164 302.254c13.26-7.214 16.863-21.914 18.2-36.622a49.424 49.424 0 0 0-36.391 0c1.327 14.708 4.927 29.408 18.191 36.622zm0-37.214a45.515 45.515 0 0 1 15.111 2.542c-1.275 12.018-4.343 24.636-15.111 31.34-10.768-6.7-13.836-19.322-15.111-31.34a45.516 45.516 0 0 1 15.111-2.542z" transform="translate(-1200.968 -262.161)"/>
                    <path id="Path_1354" d="M1254.466 278.092l1.062.692c1.167 10.383 3.914 22.818 14.043 29.479v1.172c-10.768-6.7-13.836-19.322-15.111-31.34z" class="cls-3" transform="translate(-1251.375 -272.673)"/>
                    <path id="Path_1355" d="M1224.079 278.784l1.062-.692h.006c-1.275 12.018-4.343 24.636-15.111 31.34v-1.172c10.129-6.66 12.876-19.094 14.043-29.476z" class="cls-3" transform="translate(-1191.841 -272.673)"/>
                </g>
            </g>
            <path id="Line_225" fill="none" stroke="#195dff" stroke-linecap="round" stroke-miterlimit="10" d="M16.982 0L0 0" transform="translate(34.405 106.888)"/>
            <g id="Group_2390" transform="translate(22.9 32.862)">
                <path id="Path_659" fill="#eaf9fb" stroke="#000" stroke-linecap="round" stroke-miterlimit="10" d="M482.906 746.973c6.288-.469 10.187-7.483 8.516-13.609a12.558 12.558 0 0 0-2.6-4.671c-2.334-2.794-6.144-4.389-6.234-8.525-.064-2.963 2.3-5.321 2.471-8.249.3-5.264-5.38-5.172-7.48-8.819-1.108-1.925-.183-2.878.16-4.663 1.9-9.842-6.894-8.993-6.894-8.993-8.444.34-6.2 7.976-6.2 7.976 2.585 5.6-1.9 7.636-1.9 7.636-8.617 4.582-3.447 10.861-3.447 10.861a8.725 8.725 0 0 1-.519 8.713c-1.286 2.07-3.3 3.093-4.793 4.9-2.86 3.454-2.905 9.393-.3 12.993a12.581 12.581 0 0 0 6.475 4.453c2.516.76 22.745-.003 22.745-.003z" transform="translate(-451.781 -689.426)"/>
                <path id="Line_55" d="M0 29.358L0 0" class="cls-7" transform="translate(20.784 44.989)"/>
                <path id="Line_56" d="M0 20.534L0 0" class="cls-7" transform="translate(20.784 22.419)"/>
                <path id="Line_57" d="M5.343 5.091L0 0" class="cls-7" transform="translate(15.442 30.734)"/>
                <path id="Line_58" d="M0 3.394L3.447 0" class="cls-7" transform="translate(20.784 22.079)"/>
                <path id="Line_59" d="M0 7.127L0 0" class="cls-7" transform="translate(20.267 11.219)"/>
            </g>
            <g id="Group_2389" transform="translate(75.309 34.469)">
                <circle id="Ellipse_114" cx="17.29" cy="17.29" r="17.29" class="cls-8" transform="rotate(-13.1 333.1 -645.451)"/>
                <circle id="Ellipse_115" cx="17.29" cy="17.29" r="17.29" class="cls-8" transform="rotate(-45 101.794 -.808)"/>
                <g id="Group_2369" transform="translate(14.349 20.524)">
                    <path id="Path_1358" fill="#c6ff00" stroke="#707070" d="M236.378 298.219s-4.592-2.87-25.542-9.758-34.437-9.183-55.1-8.609-48.5 8.322-53.666 10.331-7.461 2.583-6.313 4.018 7.461 6.6 6.6 8.9-14.922 14.919-15.783 16.928 2.87 8.9 3.444 10.618 3.73 2.3 6.313 2.583 186.25 0 186.25 0a10.132 10.132 0 0 0 2.009-7.174c-.574-4.018-1.189-9.317-3.776-12.712-2.094-2.749-4.259-5.655-9.712-6.229-3.425-.361-33.864-8.609-34.724-8.896z" transform="translate(-86.446 -279.767)"/>
                    <g id="Group_2388">
                        <g id="Group_2367">
                            <path id="Path_1359" d="M236.378 298.219s-4.592-2.87-25.542-9.758-34.437-9.183-55.1-8.609-48.5 8.322-53.666 10.331-7.461 2.583-6.313 4.018 7.461 6.6 6.6 8.9-14.922 14.919-15.783 16.928 2.87 8.9 3.444 10.618 3.73 2.3 6.313 2.583 186.25 0 186.25 0a10.132 10.132 0 0 0 2.009-7.174c-.574-4.018-1.189-9.317-3.776-12.712-2.094-2.749-4.259-5.655-9.712-6.229-3.425-.361-33.864-8.609-34.724-8.896z" class="cls-10" transform="translate(-86.446 -279.767)"/>
                        </g>
                    </g>
                    <path id="Path_1363" d="M236.378 298.219s-4.592-2.87-25.542-9.758-34.437-9.183-55.1-8.609-48.5 8.322-53.666 10.331-7.461 2.583-6.313 4.018 7.461 6.6 6.6 8.9-14.922 14.919-15.783 16.928 2.87 8.9 3.444 10.618 3.73 2.3 6.313 2.583 186.25 0 186.25 0a10.132 10.132 0 0 0 2.009-7.174c-.574-4.018-1.189-9.317-3.776-12.712-2.094-2.749-4.259-5.655-9.712-6.229-3.425-.361-33.864-8.609-34.724-8.896z" class="cls-11" transform="translate(-86.446 -279.767)"/>
                </g>
                <path id="Rectangle_2438" d="M0 0H10.905V2.87H0z" class="cls-12" transform="translate(199.58 59.064)"/>
                <path id="Path_1364" d="M365.036 331.728h1.738a5.569 5.569 0 0 1 5.166 3.488l1.751 4.345H368z" class="cls-13" transform="translate(-170.668 -277.628)"/>
                <path id="Path_1365" d="M389.032 336.272c-.064.178-.124.361-.175.552l-1.171 4.346h2.727a26.149 26.149 0 0 0-1.381-4.898z" class="cls-14" transform="translate(-178.682 -279.236)"/>
                <path id="Path_1366" fill="#f9fefe" stroke="#263238" stroke-miterlimit="10" d="M287.361 300.779s-4.592-2.87-25.542-9.758c-4.783-1.572-9.175-2.9-13.355-4.017H233.7l-3.157.861 42.473 12.915z" transform="translate(-123.08 -261.804)"/>
                <path id="Path_1367" d="M79.1 301.2v19.4s11.8-9.7 10.349-12.451S79.1 301.2 79.1 301.2z" class="cls-12" transform="translate(-69.497 -266.826)"/>
                <g id="Group_2371" transform="translate(0 20.524)">
                    <path id="Path_1368" d="M214.171 298.219s-4.592-2.87-25.541-9.758-34.438-9.183-55.1-8.609-48.5 8.322-53.665 10.331-7.462 2.583-6.314 4.018 7.461 6.6 6.6 8.9-14.923 14.919-15.783 16.928 2.87 8.9 3.444 10.618 3.73 2.3 6.313 2.583 186.25 0 186.25 0a10.132 10.132 0 0 0 2.009-7.174c-.574-4.018-1.189-9.317-3.776-12.712-2.094-2.749-4.259-5.655-9.712-6.229-3.425-.361-33.864-8.609-34.725-8.896z" class="cls-10" transform="translate(-64.239 -279.767)"/>
                    <path id="Path_1371" d="M214.171 298.219s-4.592-2.87-25.541-9.758-34.438-9.183-55.1-8.609-48.5 8.322-53.665 10.331-7.462 2.583-6.314 4.018 7.461 6.6 6.6 8.9-14.923 14.919-15.783 16.928 2.87 8.9 3.444 10.618 3.73 2.3 6.313 2.583 186.25 0 186.25 0a10.132 10.132 0 0 0 2.009-7.174c-.574-4.018-1.189-9.317-3.776-12.712-2.094-2.749-4.259-5.655-9.712-6.229-3.425-.361-33.864-8.609-34.725-8.896z" class="cls-11" transform="translate(-64.239 -279.767)"/>
                </g>
                <path id="Path_1372" fill="#f9fefe" d="M128.313 289.678l11.481 12.128H224.2v-2.749a233.253 233.253 0 0 0-35.573-10.349c-18.272-3.557-22.8-3.234-31.046-3.073s-29.268 4.043-29.268 4.043z" transform="translate(-86.91 -261.288)"/>
                <path id="Path_1375" d="M128.313 289.678l11.481 12.128H224.2v-2.749a233.253 233.253 0 0 0-35.573-10.349c-18.272-3.557-22.8-3.234-31.046-3.073s-29.268 4.043-29.268 4.043z" class="cls-11" transform="translate(-86.91 -261.288)"/>
                <path id="Line_224" d="M0 0L0 26.357" class="cls-11" transform="translate(79.563 42.134)"/>
                <g id="Group_2374" transform="translate(14.57 50.989)">
                    <circle id="Ellipse_116" cx="17.29" cy="17.29" r="17.29" class="cls-12" transform="rotate(-13.075 34.132 3.912)"/>
                    <circle id="Ellipse_118" cx="13.707" cy="13.707" r="13.707" class="cls-14" transform="rotate(-13.075 48.54 -13.228)"/>
                </g>
                <g id="Group_2375" transform="translate(132.551 47.291)">
                    <circle id="Ellipse_117" cx="17.29" cy="17.29" r="17.29" class="cls-12" transform="rotate(-45 29.516 12.226)"/>
                </g>
                <path id="Path_1380" d="M357.65 331.568s-12.869-.659-13.442 0 4.3 5.825 6.026 6.973c1.367.91 7.786.737 10.383.627a18.588 18.588 0 0 0-2.967-7.6z" class="cls-13" transform="translate(-163.282 -277.468)"/>
                <path id="Path_1381" d="M188.13 285.75c-.843-.057-1.643-.1-2.417-.125l-2.166 16.156h5.739z" class="cls-12" transform="translate(-106.453 -261.316)"/>
                <path id="Path_1382" d="M220.794 377.86a22.181 22.181 0 0 1-3.224 1.71c-1.382.526-2.3.855-2.039 1.71s1.776 1.579 3.685 1.973 5.328-.461 6.25-.724 1.053-1.776.394-2.631-3.948-2.498-5.066-2.038z" class="cls-18" transform="translate(-117.754 -293.923)"/>
                <path id="Path_1383" d="M221.461 384.2c-1.579 0-4.21-.592-4.21-1.184s.658-1.053-.132-1.25c-.7-.174-1.288.877-1.42 1.13.425.763 1.84 1.4 3.591 1.765 1.908.395 5.328-.461 6.25-.724a1.077 1.077 0 0 0 .7-.724 16.061 16.061 0 0 1-4.779.987z" class="cls-19" transform="translate(-117.829 -295.324)"/>
                <path id="Path_1384" d="M236 312.542l.395 1.316a2.111 2.111 0 0 0-.79 1.645 3.183 3.183 0 0 0 1.119 1.842" class="cls-20" transform="translate(-124.873 -270.84)"/>
                <g id="Group_2377" transform="translate(102.185 39.136)">
                    <path id="Path_1385" d="M227.311 308.571a25.7 25.7 0 0 0-.987 3.29v1.776c0 .33-1.316 7.3-1.579 11.579s-.461 9.276-.79 10.394.066 1.71.132 3.289.131 9.54.131 9.54-.329 2.105-.395 2.631-.724.724-.921 1.053a11.075 11.075 0 0 0-.526 1.644 5.939 5.939 0 0 1 2.7 1.579 9.7 9.7 0 0 0 3.75 2.434c.329-.066.526-.987 1.053-2.237s.461-1.908.724-2.434.658-1.382 1.25-5.328 1.119-9.8 1.447-10.592 2.039-3.75 2.039-3.75a66.683 66.683 0 0 0 3.816-8.881 53.886 53.886 0 0 0 2.171-8.684 56.542 56.542 0 0 0 .592-6.118v-.656a16.019 16.019 0 0 1-6.776.46c-4.342-.46-7.831-.989-7.831-.989z" class="cls-19" transform="translate(-222.377 -308.571)"/>
                    <path id="Path_1386" d="M237.434 314.476s-2.96 1.579-3.421 2.368-1.053 4.145-2.368 8.289-2.5 7.3-3.619 10.789a26.165 26.165 0 0 0-1.382 6.184c-.395 2.566-1.316 9.408-1.316 9.408" class="cls-20" transform="translate(-223.421 -310.66)"/>
                    <path id="Path_1391" d="M247.412 312.135a8.592 8.592 0 0 0 0 3.552 7.074 7.074 0 0 0 2.3 2.7" class="cls-20" transform="translate(-231.162 -309.832)"/>
                    <path id="Path_1392" d="M232.761 313.662s3.421.987 5.46.263" class="cls-20" transform="translate(-226.051 -310.372)"/>
                </g>
                <path id="Path_1393" d="M234.524 273.641s-4.473 1.119-5.789 1.382-2.039.264-2.237.856a52.161 52.161 0 0 1-5 7.631c-1.513 1.645-1.645 3.224-1.184 4.079s.987 1.25 2.961.724a6.671 6.671 0 0 0 3.223-2.171s.461 4.934-.2 6.908-.921 3.553-.461 3.882a13.748 13.748 0 0 0 6.513 1.71c3.619.132 7.763-.2 8.421-.855a1.766 1.766 0 0 0 .658-1.513 18.486 18.486 0 0 1 .527-5.987c.789-2.434 3.026-8.684 3.092-11.052s-.855-2.7-2.632-3.421-4.6-1.973-5.263-2.105a19.444 19.444 0 0 0-2.629-.068z" class="cls-18" transform="translate(-119.379 -257.07)"/>
                <path id="Path_1394" d="M239.015 271.8a10.707 10.707 0 0 0-1.513 1.184c-.066.2-2.368 3.882-2.105 3.882s3.158-1.447 3.158-1.447 1.447-2.171 1.316-3.026a.627.627 0 0 0-.856-.593z" class="cls-19" transform="translate(-124.791 -256.41)"/>
                <path id="Path_1395" d="M239.686 268.889a17.667 17.667 0 0 1-.329 4.342c-.461 1.776-.79 2.96-.132 3.158s2.829-3.027 3.421-3.948a6.372 6.372 0 0 0 .79-1.71l.461-5.131s-2.632 2.829-4.211 3.289z" class="cls-19" transform="translate(-126.022 -254.231)"/>
                <g id="Group_2380" transform="translate(110.243)">
                    <g id="Group_2379" transform="translate(.395 1.515)">
                        <path id="Path_1396" d="M236.116 251.257s-.658 5.591-.658 7.7 1.382 4.8 2.039 5.066 2.3.526 2.96.065a22.793 22.793 0 0 0 2.5-3.289 39.143 39.143 0 0 0 1.382-6.053c.2-2.236-.395-3.289-2.434-3.947s-4.737-.661-5.789.458z" class="cls-19" transform="translate(-235.458 -250.349)"/>
                    </g>
                    <path id="Path_1403" d="M234.847 249.506a.833.833 0 0 0 .023.163 2.108 2.108 0 0 0 1.424 1.416c1.447.592 4.868-.132 6.053.263s.658 1.513-.066 1.908-.855.593-.526 1.053 1.118.921.855 1.447-.395 1.053.066 1.118.79.066.987-.2a13.175 13.175 0 0 0 1.513-4.737c0-1.645-.79-2.368-2.632-3.092s-5.657-1.184-6.776-.526a1.609 1.609 0 0 0-.921 1.187z" class="cls-18" transform="translate(-234.847 -248.005)"/>
                    <path id="Path_1404" d="M246.658 263.7a1.061 1.061 0 0 0 1.315.147 2.682 2.682 0 0 0 .592-2.961c-.461-.855-1.382.79-1.382.79" class="cls-19" transform="translate(-239.026 -252.475)"/>
                </g>
                <path id="Path_1405" d="M242.422 272.5s-.132 5.855.263 5.2 3.685-5 3.685-5l-.79-2.3z" class="cls-19" transform="translate(-127.277 -255.926)"/>
                <g id="Group_2382" transform="translate(108.434 19.795)">
                    <path id="Path_1406" d="M250.167 281.863l-2.236 6.974 4.079 5.2s.2.395.526-.066.593-.461 1.119-2.961a73.675 73.675 0 0 0 1.25-10c-.066-1.447-.329-2.171-1.447-2.368" class="cls-18" transform="translate(-237.668 -278.639)"/>
                    <g id="Group_2381" transform="translate(0 9.247)">
                        <path id="Path_1407" d="M232.048 295.018s10.2 3.882 11.579 3.947 1.71-.856 1.119-2.566-2.368-2.7-3.882-3.158a10.963 10.963 0 0 0-5.263.066c-1.513.393-3.553 1.185-3.553 1.711z" class="cls-19" transform="translate(-232.048 -292.949)"/>
                        <path id="Path_1408" d="M245.182 293.236s2.434 5.263 2.566 5.723 2.631.79 3.421.724.46-1.25-.329-2.96-2.04-3.224-2.961-3.487a8.651 8.651 0 0 0-2.697 0z" class="cls-19" transform="translate(-236.695 -293.009)"/>
                    </g>
                </g>
                <g id="Group_2384" transform="translate(99.906 26.963)">
                    <path id="Path_1409" d="M222.247 290.449a10.189 10.189 0 0 0-2.5.527c-.921.394-1.119 3.157-.658 4.144s1.908.987 2.895.921a1.977 1.977 0 0 0 1.447-.724l.724-4.868z" class="cls-18" transform="translate(-218.851 -289.986)"/>
                    <g id="Group_2383" transform="translate(1.836)">
                        <path id="Path_1410" d="M225.968 290.41s7.434 0 9.276-.066 2.3.395 2.7 1.053.527.921.527.921a28.861 28.861 0 0 0-6.842 1.513c-3.026 1.184-5.657 2.237-6.579 2.237s-1.316-2.368-.921-4.013a1.984 1.984 0 0 1 1.839-1.645z" class="cls-19" transform="translate(-222.499 -289.947)"/>
                        <path id="Path_1411" d="M223.055 289.735s3.158-.065 3.092.527-.658 5.065-.856 5.46-2.1.592-3.026.527-.592-3.027 0-4.408a18.3 18.3 0 0 0 .79-2.106z" class="cls-19" transform="translate(-221.692 -289.733)"/>
                    </g>
                </g>
                <path id="Path_1412" d="M237.927 312.949s.526.79.329.987-1.184 1.119-1.119 1.71a1.632 1.632 0 0 0 .395.921" class="cls-20" transform="translate(-125.413 -270.984)"/>
                <circle id="Ellipse_119" cx="13.707" cy="13.707" r="13.707" class="cls-14" transform="rotate(-13.075 339.048 -581.423)"/>
            </g>
            <path id="Line_226" fill="none" stroke="#195dff" stroke-linecap="round" stroke-miterlimit="10" stroke-width="0.8px" d="M325 0L0 0" transform="translate(0 124.239)"/>
        </g>
        <path id="Path_1433" fill="#263238" stroke="rgba(0,0,0,0)" stroke-miterlimit="10" d="M1097.808 554.549l-.431-.432a1 1 0 0 0-1.414 1.414l4.214 4.213 6.45-6.451a1 1 0 1 0-1.414-1.414l-1.158 1.158-3.878 3.879z" transform="translate(-944.434 -537.761)"/>
    </g>
</svg>
