<svg xmlns="http://www.w3.org/2000/svg" width="24.838" height="33.396" viewBox="0 0 24.838 33.396">
    <path fill="#264a9f" stroke="#264a9f" stroke-width="0.1px" d="M-281.3 284.051a3.452 3.452 0 0 1-3.442-3.445v-23.718a3.451 3.451 0 0 1 3.443-3.437h5.573l.142-.4a3.431 3.431 0 0 1 2.1-2.1 3.44 3.44 0 0 1 1.15-.2 3.451 3.451 0 0 1 3.247 2.3l.142.4h5.506A3.452 3.452 0 0 1-260 256.89v23.717a3.455 3.455 0 0 1-3.44 3.444zm0-29.11a1.955 1.955 0 0 0-1.941 1.947v23.719a1.955 1.955 0 0 0 1.941 1.943h17.859a1.955 1.955 0 0 0 1.948-1.928v-23.733a1.952 1.952 0 0 0-1.947-1.948h-2.76v5.323h-12.276v-5.323zm4.321 3.828h9.3v-3.828h-2.7v-.748a1.953 1.953 0 0 0-1.951-1.95 1.953 1.953 0 0 0-1.95 1.95v.755l-2.7-.009zm-1.714 12.653l1.041-1.075 3.712 3.594 6.779-7.443 1.106 1.007-7.813 8.584z" transform="translate(284.794 -250.705)"/>
</svg>
