<svg xmlns="http://www.w3.org/2000/svg" width="47.47" height="48.592" viewBox="0 0 47.47 48.592">
    <defs>
        <filter id="rk7ep9n8ya" width="47.47" height="48.592" x="0" y="0" filterUnits="userSpaceOnUse">
            <feOffset dx="-3" dy="-3"/>
            <feGaussianBlur result="blur" stdDeviation="3"/>
            <feFlood flood-color="#fff"/>
            <feComposite in2="blur" operator="in"/>
            <feComposite in="SourceGraphic"/>
        </filter>
    </defs>
    <g filter="url(#rk7ep9n8ya)">
        <path fill="rgba(13,53,148,0.9)" d="M432.423 1481.349v-.615a11.046 11.046 0 0 0-10.927-11.14h-.108a11.049 11.049 0 0 0-11.034 10.927v.829a4.851 4.851 0 0 0-3.7 4.72v2.062a4.921 4.921 0 0 0 4.91 4.861h.408a1.417 1.417 0 0 0 1.112-.436 1.582 1.582 0 0 0 .478-1.147v-8.623a1.557 1.557 0 0 0-.437-1.112 1.579 1.579 0 0 0-1.146-.477h-.062v-.472a9.515 9.515 0 0 1 9.512-9.516 9.512 9.512 0 0 1 9.512 9.516v.472h-.054a1.453 1.453 0 0 0-1.112.437 1.58 1.58 0 0 0-.478 1.145v8.623a1.573 1.573 0 0 0 1.582 1.59h.418c.118 0 .237-.009.355-.019a3.34 3.34 0 0 1-3.275 2.608h-2.388a3.845 3.845 0 1 0 0 1.523h2.39a4.891 4.891 0 0 0 4.857-4.55 4.842 4.842 0 0 0 2.887-4.429v-2.056a4.852 4.852 0 0 0-3.7-4.721zm2.218 4.68v2.057a3.334 3.334 0 0 1-3.349 3.348l-.473-.061.061-8.691h.411a3.366 3.366 0 0 1 3.35 3.347zm-26.423 2.052v-2.055a3.345 3.345 0 0 1 3.35-3.348l.473.061-.062 8.692h-.429a3.336 3.336 0 0 1-3.332-3.35zm16.354 8.263a2.314 2.314 0 0 1-2.227 2.319h-.093a2.321 2.321 0 0 1 0-4.642 2.32 2.32 0 0 1 2.32 2.323z" transform="translate(-394.65 -1457.59)"/>
    </g>
</svg>
