<svg xmlns="http://www.w3.org/2000/svg" width="32.65" height="32.65" viewBox="0 0 32.65 32.65">
    <path fill="#264a9f" stroke="#f9f9f9" stroke-width="0.5px" d="M28.507 16.448a2.884 2.884 0 0 1 1.926.74 1.03 1.03 0 0 0 1.717-.767V7.568a1.03 1.03 0 0 0-1.03-1.03h-7.082a4.955 4.955 0 1 0-9.389 0h-7.08a1.03 1.03 0 0 0-1.03 1.03v7.082a4.957 4.957 0 1 0 0 9.39v7.08a1.03 1.03 0 0 0 1.03 1.03h8.853a1.03 1.03 0 0 0 .729-1.758 2.9 2.9 0 1 1 4.349.04 1.03 1.03 0 0 0 .767 1.718h8.854a1.03 1.03 0 0 0 1.03-1.03v-8.851a1.03 1.03 0 0 0-1.717-.767 2.894 2.894 0 1 1-1.927-5.053zm0 7.853a4.928 4.928 0 0 0 1.584-.261v6.05h-6.052a4.956 4.956 0 1 0-9.39 0H8.6v-7.822a1.03 1.03 0 0 0-1.717-.768 2.9 2.9 0 1 1 0-4.312 1.03 1.03 0 0 0 1.717-.767V8.6h7.82a1.03 1.03 0 0 0 .768-1.717 2.895 2.895 0 1 1 4.313 0 1.03 1.03 0 0 0 .766 1.717h7.824v6.051a4.956 4.956 0 1 0-1.584 9.649z" transform="translate(.249 .25)"/>
</svg>
